<?xml version="1.0" standalone="no"?>
<!DOCTYPE svg PUBLIC "-//W3C//DTD SVG 1.1//EN" "http://www.w3.org/Graphics/SVG/1.1/DTD/svg11.dtd" >
<svg xmlns="http://www.w3.org/2000/svg" xmlns:xlink="http://www.w3.org/1999/xlink" version="1.1">
<metadata>
Created by FontForge 20170731 at Wed Jan  6 19:30:26 2016
 By Aleksey,,,
Copyright (c) 2011 by Omnibus-Type (www.omnibus-type.com) with Reserved Font Name 'Rosario'. Copyright (c) 2013 by Adobe Systems Incorporated. All Rights Reserved.
</metadata>
<defs>
<font id="Rosario-Regular" horiz-adv-x="494" >
  <font-face 
    font-family="Rosario"
    font-weight="400"
    font-stretch="normal"
    units-per-em="1000"
    panose-1="2 0 5 3 4 0 0 2 0 3"
    ascent="779"
    descent="-221"
    x-height="497"
    cap-height="728"
    bbox="-153 -230 1155 948"
    underline-thickness="19"
    underline-position="-147"
    unicode-range="U+000D-FB02"
  />
<missing-glyph horiz-adv-x="230" 
 />
    <glyph glyph-name="fi" unicode="fi" horiz-adv-x="568" 
d="M487 -1h-82v435h-227v-435h-83v435h-75v52q1 0 12.5 1t14.5 1.5t12.5 2.5t13.5 4.5t10 6.5t9 10t5 14q3 14 7.5 42t4.5 31q15 81 65 125.5t133 44.5q61 0 109 -29t67 -84l-83 -25q-7 35 -31.5 55.5t-59.5 20.5q-132 0 -132 -210h310v-498z" />
    <glyph glyph-name="fl" unicode="fl" horiz-adv-x="568" 
d="M483 -1h-82v636q0 33 -29.5 52.5t-63.5 19.5q-36 0 -62 -14t-39 -33t-20 -51.5t-8.5 -55t-1.5 -56.5h143l-18 -63h-125v-435h-82v435h-75v52q4 0 14 1t14.5 1.5t12.5 2t12.5 4t10 6.5t8.5 10.5t5 14.5q3 14 6.5 39.5t4.5 33.5q15 80 65.5 125t132.5 45q71 0 112 -31
l65 26v-765z" />
    <glyph glyph-name=".notdef" horiz-adv-x="230" 
 />
    <glyph glyph-name=".null" horiz-adv-x="0" 
 />
    <glyph glyph-name=".null" horiz-adv-x="0" 
 />
    <glyph glyph-name="nonmarkingreturn" unicode="&#xd;" horiz-adv-x="230" 
 />
    <glyph glyph-name="space" unicode=" " horiz-adv-x="230" 
 />
    <glyph glyph-name="exclam" unicode="!" horiz-adv-x="329" 
d="M194 217h-59l-29 496q0 14 17 14h82q18 0 18 -15zM99 53q0 28 19 47t47 19q27 0 46.5 -19.5t19.5 -46.5t-19.5 -46.5t-46.5 -19.5t-46.5 19.5t-19.5 46.5z" />
    <glyph glyph-name="quotedbl" unicode="&#x22;" horiz-adv-x="367" 
d="M271 441h-29q-1 3 -7.5 32t-13 55.5t-6.5 27.5v178h84v-178q0 -3 -28 -115zM125 441h-29q-1 3 -7.5 32t-13 55.5t-6.5 27.5v178h84v-178q0 -1 -6.5 -27.5t-13.5 -55.5t-8 -32z" />
    <glyph glyph-name="numbersign" unicode="#" horiz-adv-x="640" 
d="M398 -5h-71l33 241h-111l-34 -241h-70l33 241h-126v65h135l16 121h-125v66h134l31 233h73l-33 -233h112l31 233h71l-32 -233h123v-66h-131l-17 -121h124v-65h-133zM369 301l17 121h-112l-16 -121h111z" />
    <glyph glyph-name="dollar" unicode="$" horiz-adv-x="453" 
d="M228 -116h-73l31 103q-53 6 -119 42l37 61q56 -40 105 -40q41 0 70.5 16.5t29.5 54.5q0 30 -24 53t-58.5 38.5t-68.5 33t-58 47.5t-24 71q0 66 48 104t116 41l10 104h72l-32 -107q57 -9 95 -32l-29 -64q-47 36 -96 36q-39 0 -68.5 -16.5t-29.5 -51.5q0 -30 24 -52
t58.5 -36.5t69 -31.5t58.5 -47t24 -73q0 -68 -44.5 -107t-114.5 -45z" />
    <glyph glyph-name="percent" unicode="%" horiz-adv-x="863" 
d="M668 -5q-77 0 -122.5 59t-45.5 138q0 82 42 137.5t122 55.5q75 0 119 -58t44 -135q0 -76 -43 -136.5t-116 -60.5zM288 -13h-64l328 670h-224q45 -55 45 -136q0 -75 -43 -136t-115 -61q-77 0 -123 59t-46 138q0 81 42.5 137.5t121.5 56.5h433zM667 54q30 0 49.5 25
t26.5 53.5t7 57.5q0 28 -7.5 57.5t-27.5 55t-50 25.5q-43 0 -67 -46.5t-24 -93.5t24.5 -90.5t68.5 -43.5zM213 383q30 0 50 25t27 54t7 57q0 48 -21.5 93t-64.5 45q-29 0 -50.5 -25.5t-30.5 -56t-9 -58.5q0 -47 24 -90.5t68 -43.5z" />
    <glyph glyph-name="ampersand" unicode="&#x26;" horiz-adv-x="679" 
d="M666 0h-61q-72 0 -153 83q-91 -96 -201 -96q-81 0 -140.5 58.5t-59.5 139.5q0 120 152 209q-58 78 -58 157q0 60 45 96.5t106 36.5q58 0 100.5 -33.5t42.5 -90.5q0 -90 -128 -173l151 -182q34 69 43 149l62 -14q-13 -103 -62 -186q12 -13 27.5 -31t21.5 -24t16.5 -14.5
t22 -10t28.5 -3.5t45 -2v-69zM275 437q86 55 86 120q0 30 -18.5 50t-47.5 20q-31 0 -50 -21.5t-19 -52.5q0 -49 49 -116zM409 131q-72 85 -172 214q-101 -66 -101 -153q0 -56 38 -91t95 -35q69 0 140 65z" />
    <glyph glyph-name="quotesingle" unicode="'" horiz-adv-x="226" 
d="M127 445h-29q-1 3 -7.5 32t-13 55.5t-6.5 27.5v178h84v-178q0 -1 -6.5 -27.5t-13.5 -55.5t-8 -32z" />
    <glyph glyph-name="parenleft" unicode="(" horiz-adv-x="306" 
d="M285 -129l-67 -9q-174 202 -174 440q0 241 174 441l67 -10q-153 -188 -153 -431t153 -431z" />
    <glyph glyph-name="parenright" unicode=")" horiz-adv-x="306" 
d="M88 -138l-67 9q154 191 154 431t-154 431l67 10q174 -200 174 -441q0 -238 -174 -440z" />
    <glyph glyph-name="asterisk" unicode="*" horiz-adv-x="510" 
d="M437 569l-137 -28l-13 42l121 64zM273 591h-41l-20 140h78zM392 427l-63 -48l-68 124l33 23zM208 546l-136 21l21 76l128 -61zM178 381l-61 45l95 104l34 -27z" />
    <glyph glyph-name="plus" unicode="+" horiz-adv-x="642" 
d="M567 215h-215v-215h-70v215h-214v68h214v214h70v-214h215v-68z" />
    <glyph glyph-name="comma" unicode="," horiz-adv-x="235" 
d="M47 -93q2 3 11 11.5t14 14t11.5 14t9.5 16.5t3 15q0 11 -25 34.5t-25 51.5q0 25 18 42.5t44 17.5q35 0 55 -25t20 -60q0 -92 -102 -166q-18 16 -34 34z" />
    <glyph glyph-name="hyphen" unicode="-" horiz-adv-x="313" 
d="M272 224h-231v75h231v-75z" />
    <glyph glyph-name="period" unicode="." horiz-adv-x="228" 
d="M42 56q0 28 19 47t47 19q27 0 46.5 -19.5t19.5 -46.5t-19.5 -46.5t-46.5 -19.5t-46.5 19.5t-19.5 46.5z" />
    <glyph glyph-name="slash" unicode="/" horiz-adv-x="326" 
d="M64 -9h-69l269 736h67z" />
    <glyph glyph-name="zero" unicode="0" horiz-adv-x="578" 
d="M49 248q0 112 65.5 186.5t175.5 74.5q109 0 175 -75t66 -186t-66 -186t-175 -75t-175 75t-66 186zM290 50q150 0 150 198t-150 198q-151 0 -151 -198t151 -198z" />
    <glyph glyph-name="one" unicode="1" horiz-adv-x="387" 
d="M360 -1h-313v68h117v337l-120 -37l-18 47l171 83h50v-430h113v-68z" />
    <glyph glyph-name="two" unicode="2" horiz-adv-x="469" 
d="M425 -1h-391v53l232 232q43 43 43 90q0 30 -19.5 51t-49.5 21q-63 0 -142 -65l-41 46q36 36 89.5 59t104.5 23q64 0 108.5 -35.5t44.5 -98.5q0 -81 -107 -173l-156 -134h304z" />
    <glyph glyph-name="three" unicode="3" horiz-adv-x="410" 
d="M-46 -196l-9 54q45 0 99.5 14t106 40t86 68t34.5 92q0 90 -93 90q-36 0 -69 -11l-27 56q63 29 118 82t55 109q0 24 -13.5 36.5t-37.5 12.5q-26 0 -59.5 -15t-54.5 -35l-47 39q52 40 91 56.5t96 16.5q53 0 84.5 -29t31.5 -81q0 -46 -41.5 -93t-92.5 -80l13 1h12
q59 0 92 -42.5t33 -107.5q0 -72 -39.5 -127.5t-103 -85.5t-131 -45t-134.5 -15z" />
    <glyph glyph-name="four" unicode="4" horiz-adv-x="497" 
d="M387 -185h-83v185h-292v40l277 458h98v-429h101l-18 -69h-83v-185zM304 69v330l-200 -330h200z" />
    <glyph glyph-name="five" unicode="5" horiz-adv-x="377" 
d="M10 -209l-16 52q221 69 221 231q0 65 -53.5 121t-121.5 88l91 214h236l-24 -85h-177l-35 -84q76 -37 125 -103t49 -145q0 -115 -87.5 -192.5t-207.5 -96.5z" />
    <glyph glyph-name="six" unicode="6" horiz-adv-x="536" 
d="M449 732l21 -51q-113 -47 -197.5 -132t-115.5 -195q62 51 142 51q84 0 136.5 -59t52.5 -144q0 -94 -61 -154.5t-155 -60.5q-100 0 -161.5 73t-61.5 175q0 135 74 246t197 189q75 47 129 62zM142 270q-1 -13 -1 -38q0 -71 33 -126.5t100 -55.5q61 0 92 44.5t31 107.5
q0 56 -33 95.5t-88 39.5q-69 0 -134 -67z" />
    <glyph glyph-name="seven" unicode="7" horiz-adv-x="425" 
d="M127 -185h-89l270 607h-293l20 75h370v-42z" />
    <glyph glyph-name="eight" unicode="8" horiz-adv-x="492" 
d="M314 392l-9 -9q2 -2 29 -28t33.5 -33t26.5 -31t26.5 -38t14 -36.5t7.5 -44.5q0 -85 -58 -134t-146 -49q-77 0 -134 46.5t-57 122.5q0 37 8 65.5t28.5 54t36.5 40.5t49 43l16 13q-9 10 -39 39.5t-40.5 43.5t-22.5 42.5t-12 60.5q0 70 52 119.5t123 49.5q73 0 122.5 -43.5
t49.5 -115.5q0 -38 -17 -73t-34 -53.5t-53 -51.5zM254 432q84 74 84 138q0 41 -24.5 70.5t-65.5 29.5t-62.5 -31.5t-21.5 -73.5q0 -13 5 -26.5t10.5 -23.5t17 -24t18.5 -21t21 -20.5t18 -17.5zM234 326l-15 -13q-25 -22 -35.5 -32.5t-26.5 -30.5t-22 -41t-6 -48
q0 -44 31.5 -78t75.5 -34q50 0 81.5 33.5t31.5 83.5q0 19 -7 37t-22 36.5t-26.5 30.5t-32.5 31t-27 25z" />
    <glyph glyph-name="nine" unicode="9" horiz-adv-x="536" 
d="M82 -217l-21 56q267 111 321 303q-62 -51 -142 -51t-134.5 61t-54.5 142q0 90 63 152.5t153 62.5q105 0 164 -70.5t59 -177.5q0 -135 -75.5 -241t-201.5 -179q-78 -44 -131 -58zM397 226q2 13 2 38q0 75 -32 129t-101 54q-58 0 -91 -46.5t-33 -106.5q0 -56 33 -95.5
t88 -39.5q69 0 134 67z" />
    <glyph glyph-name="colon" unicode=":" horiz-adv-x="331" 
d="M96 53q0 28 19 47t47 19q27 0 46.5 -19.5t19.5 -46.5t-19.5 -46.5t-46.5 -19.5t-46.5 19.5t-19.5 46.5zM96 368q0 28 19 47t47 19q27 0 46.5 -19.5t19.5 -46.5t-19.5 -46.5t-46.5 -19.5t-46.5 19.5t-19.5 46.5z" />
    <glyph glyph-name="semicolon" unicode=";" horiz-adv-x="334" 
d="M96 368q0 28 19 47t47 19q27 0 46.5 -19.5t19.5 -46.5t-19.5 -46.5t-46.5 -19.5t-46.5 19.5t-19.5 46.5zM92 -93q2 3 11 11.5t14 14t11.5 14t9.5 16.5t3 15q0 11 -25 34.5t-25 51.5q0 25 18 42.5t44 17.5q35 0 55 -25t20 -60q0 -92 -102 -166q-18 16 -34 34z" />
    <glyph glyph-name="less" unicode="&#x3c;" horiz-adv-x="630" 
d="M564 -4l-498 218v73l498 216v-77l-405 -177l405 -177v-76z" />
    <glyph glyph-name="equal" unicode="=" horiz-adv-x="630" 
d="M567 306h-499v70h499v-70zM567 113h-499v70h499v-70z" />
    <glyph glyph-name="greater" unicode="&#x3e;" horiz-adv-x="630" 
d="M564 214l-498 -218v76l405 177l-405 177v77l498 -216v-73z" />
    <glyph glyph-name="question" unicode="?" horiz-adv-x="438" 
d="M222 217h-65v195q59 10 100.5 45t41.5 91q0 52 -36.5 83t-88.5 31q-62 0 -96 -28l-27 57q45 32 132 32q82 0 143 -44.5t61 -124.5q0 -61 -41 -112.5t-100 -70.5q-17 -6 -20.5 -10.5t-3.5 -20.5v-123zM120 53q0 28 19 47t47 19q27 0 46.5 -19.5t19.5 -46.5t-19.5 -46.5
t-46.5 -19.5t-46.5 19.5t-19.5 46.5z" />
    <glyph glyph-name="at" unicode="@" horiz-adv-x="831" 
d="M446 -75l12 -41q-45 -12 -92 -12q-137 0 -226 91.5t-89 228.5q0 105 47.5 200.5t141.5 159.5t213 64q138 0 232 -82t94 -223q0 -101 -52.5 -180t-136.5 -79q-75 0 -103 61q-1 1 -3 1q-21 -30 -52.5 -47t-62.5 -17q-61 0 -91 41.5t-30 105.5q0 52 22.5 106.5t70.5 95.5
t108 41q51 0 84 -36q6 9 16 29h37q-40 -264 -40 -286q0 -52 46 -52q61 0 99 65.5t38 150.5q0 121 -79 192t-197 71q-79 0 -147 -33.5t-112 -88t-68.5 -122.5t-24.5 -138q0 -119 75 -198.5t190 -79.5q39 0 80 11zM510 359q-29 32 -64 32q-40 0 -70 -37t-42 -80t-12 -79
q0 -96 61 -96q33 0 57 26t38 74.5t20 79.5t12 80z" />
    <glyph glyph-name="A" unicode="A" horiz-adv-x="631" 
d="M614 0h-103l-84 250h-240l-85 -250h-84l253 728h91zM404 318l-96 288l-98 -288h194z" />
    <glyph glyph-name="B" unicode="B" horiz-adv-x="614" 
d="M283 0h-198v662q0 1 -3.5 16t-7 31.5t-3.5 18.5h243q221 0 221 -169q0 -59 -33.5 -105.5t-89.5 -56.5q73 -11 114.5 -64.5t41.5 -128.5q0 -62 -23.5 -104.5t-67 -63t-89 -28.5t-105.5 -8zM178 427h107q74 0 113.5 30t39.5 100q0 102 -127 102h-133v-232zM178 69h111
q87 0 133.5 33t46.5 117q0 71 -52.5 105t-127.5 34h-111v-289z" />
    <glyph glyph-name="C" unicode="C" horiz-adv-x="624" 
d="M564 125l43 -67q-40 -33 -102.5 -51.5t-119.5 -18.5q-158 0 -248.5 109t-90.5 269q0 162 91 267t250 105q59 0 121.5 -20.5t96.5 -58.5l-52 -58q-28 31 -76 49t-92 18q-62 0 -109 -26.5t-74 -72t-40.5 -98t-13.5 -111.5q0 -60 13.5 -112t41 -94t75 -66.5t109.5 -24.5
q45 0 94.5 17t82.5 45z" />
    <glyph glyph-name="D" unicode="D" horiz-adv-x="699" 
d="M323 0h-237v662q0 1 -3.5 16t-7 31.5t-3.5 18.5h187q394 0 394 -366q0 -164 -83.5 -263t-246.5 -99zM179 69h132q128 0 186.5 81t58.5 214q0 155 -75.5 225t-228.5 70h-73v-590z" />
    <glyph glyph-name="E" unicode="E" horiz-adv-x="549" 
d="M509 0h-423v662q0 1 -3.5 16t-7 31.5t-3.5 18.5h437v-69h-330v-251h256v-68h-256v-271h330v-69z" />
    <glyph glyph-name="F" unicode="F" horiz-adv-x="510" 
d="M179 0h-93v662q0 1 -3.5 16t-7 31.5t-3.5 18.5h403v-69h-296v-251h235v-68h-235v-340z" />
    <glyph glyph-name="G" unicode="G" horiz-adv-x="707" 
d="M651 0h-50l-32 76q-82 -88 -210 -88q-76 0 -137 30t-98.5 81t-57 116.5t-19.5 139.5q0 168 87.5 275.5t250.5 107.5q64 0 132 -21t107 -62l-53 -62q-51 41 -89 57t-97 16q-63 0 -111 -25t-75 -68.5t-40.5 -96t-13.5 -112.5q0 -58 12.5 -109.5t38.5 -96t72 -70.5t107 -26
q78 0 125.5 50.5t47.5 128.5v66h-179l12 68h261v-209q0 -1 9 -166z" />
    <glyph glyph-name="H" unicode="H" horiz-adv-x="714" 
d="M627 0h-93v344h-354v-344h-93v662q0 1 -3.5 16t-7 31.5t-3.5 18.5h107v-316h354v316h93v-728z" />
    <glyph glyph-name="I" unicode="I" horiz-adv-x="268" 
d="M180 0h-93v662q0 1 -3.5 16t-7 31.5t-3.5 18.5h107v-728z" />
    <glyph glyph-name="J" unicode="J" horiz-adv-x="268" 
d="M-11 -211l-12 52q37 5 61 26.5t34 56.5t13 63t3 68v607l-15 66h108v-667q0 -45 -4.5 -80.5t-17 -70.5t-33 -59t-55.5 -41t-82 -21z" />
    <glyph glyph-name="K" unicode="K" horiz-adv-x="584" 
d="M583 0h-116l-288 379v-379h-93v662q0 1 -3.5 16t-7 31.5t-3.5 18.5h107v-325l289 325h97l-287 -324z" />
    <glyph glyph-name="L" unicode="L" horiz-adv-x="514" 
d="M485 0h-399v662q0 1 -3.5 16t-7 31.5t-3.5 18.5h107v-659h306v-69z" />
    <glyph glyph-name="M" unicode="M" horiz-adv-x="838" 
d="M751 0h-92v595l-219 -596h-56l-219 596v-595h-76v662l-15 66h135l212 -567l209 567h121v-728z" />
    <glyph glyph-name="N" unicode="N" horiz-adv-x="714" 
d="M627 -5h-59l-405 620v-615h-76v662q0 1 -3.5 16t-7 31.5t-3.5 18.5h124l354 -545v545h76v-733z" />
    <glyph glyph-name="O" unicode="O" horiz-adv-x="737" 
d="M368 -11q-79 0 -141.5 30t-101.5 82.5t-59 119t-20 142.5q0 160 83.5 267.5t239.5 107.5q155 0 238.5 -107.5t83.5 -267.5q0 -103 -34.5 -186t-109 -135.5t-179.5 -52.5zM594 363q0 57 -12 109t-37 97t-70 72t-106 27t-106 -27t-70 -73t-36.5 -97.5t-11.5 -108.5
t11.5 -108.5t36.5 -97t70 -72.5t106 -27t106.5 27t70.5 72.5t36.5 97t11.5 109.5z" />
    <glyph glyph-name="P" unicode="P" horiz-adv-x="575" 
d="M179 0h-93v662l-15 66h218q114 0 179.5 -53.5t65.5 -166.5q0 -105 -69 -162.5t-175 -57.5h-111v-288zM179 356h109q69 0 109 41.5t40 110.5q0 71 -38.5 111t-109.5 40h-110v-303z" />
    <glyph glyph-name="Q" unicode="Q" horiz-adv-x="737" 
d="M1139 -127l16 -48q-46 -17 -69.5 -24.5t-65 -15t-85.5 -7.5q-53 0 -130 23t-131.5 47t-137 63.5t-98.5 46.5q-32 15 -131 37q-133 30 -197 128.5t-64 239.5q0 103 34 186t108.5 136t180.5 53q80 0 142.5 -30.5t101 -83t58.5 -119t20 -142.5q0 -117 -49 -211.5
t-149 -137.5q2 -1 7.5 -3.5t7.5 -3.5q321 -165 461 -165q68 0 170 31zM369 668q-49 0 -88 -18t-64 -47.5t-41.5 -70t-23.5 -82.5t-7 -88q0 -58 12 -109.5t37 -97t70 -72t105 -26.5t105.5 26.5t70.5 72t37 97.5t12 110t-12 110t-37 97t-70.5 71.5t-105.5 26.5z" />
    <glyph glyph-name="R" unicode="R" horiz-adv-x="591" 
d="M599 0h-108l-188 329q-23 -2 -75 -2h-50v-327h-93v662q0 1 -3.5 16t-7 31.5t-3.5 18.5h217q246 0 246 -201q0 -60 -40.5 -111.5t-98.5 -69.5zM178 395h80q83 0 131 30.5t48 107.5q0 61 -43 93.5t-106 32.5h-110v-264z" />
    <glyph glyph-name="S" unicode="S" horiz-adv-x="516" 
d="M32 42l36 82q33 -29 80 -46.5t90 -17.5q57 0 102 32t45 93q0 52 -34.5 88t-83.5 57.5t-97.5 45t-83 66.5t-34.5 106q0 89 68 139.5t160 50.5q97 0 188 -54l-46 -67q-70 50 -143 50q-57 0 -92 -28t-35 -83q0 -31 18.5 -55.5t47.5 -41.5t64.5 -33t71.5 -35.5t65 -43.5
t47.5 -62t18.5 -87q0 -102 -72 -156t-178 -54q-98 0 -203 54z" />
    <glyph glyph-name="T" unicode="T" horiz-adv-x="578" 
d="M335 0h-95v659h-216v69h530v-69h-219v-659z" />
    <glyph glyph-name="U" unicode="U" horiz-adv-x="707" 
d="M543 258v470h77v-470q0 -127 -70.5 -198.5t-198.5 -71.5q-127 0 -196 65.5t-69 190.5v418l-15 66h110v-484q0 -88 43.5 -137.5t130.5 -49.5q91 0 139.5 54.5t48.5 146.5z" />
    <glyph glyph-name="V" unicode="V" horiz-adv-x="603" 
d="M330 -3h-58l-251 731h99l188 -566l194 567h80z" />
    <glyph glyph-name="W" unicode="W" horiz-adv-x="894" 
d="M674 -5h-77l-149 546l-148 -546h-77l-202 733h98l151 -558l150 558h74l150 -558l151 558h78z" />
    <glyph glyph-name="X" unicode="X" horiz-adv-x="585" 
d="M573 0h-109l-179 300l-187 -300h-86l231 372l-212 356h107l160 -267l166 267h87l-212 -337z" />
    <glyph glyph-name="Y" unicode="Y" horiz-adv-x="584" 
d="M344 0h-95v360l-217 368h108l169 -283l157 283h87l-209 -368v-360z" />
    <glyph glyph-name="Z" unicode="Z" horiz-adv-x="571" 
d="M529 0h-494v67l378 592h-356v69h467v-67l-378 -592h391z" />
    <glyph glyph-name="bracketleft" unicode="[" horiz-adv-x="351" 
d="M280 -128h-208v858h208v-49h-127v-760h127v-49z" />
    <glyph glyph-name="backslash" unicode="\" horiz-adv-x="326" 
d="M329 0h-67l-265 728h69z" />
    <glyph glyph-name="bracketright" unicode="]" horiz-adv-x="350" 
d="M279 -127h-207v49h126v759h-127v49h208v-857z" />
    <glyph glyph-name="asciicircum" unicode="^" horiz-adv-x="618" 
d="M562 0h-76l-177 405l-176 -405h-77l215 497h74z" />
    <glyph glyph-name="underscore" unicode="_" horiz-adv-x="499" 
d="M509 -126h-518v60h518v-60z" />
    <glyph glyph-name="grave" unicode="`" horiz-adv-x="281" 
d="M249 576h-78l-140 152h123z" />
    <glyph glyph-name="a" unicode="a" 
d="M481 73l17 -52q-7 -3 -22.5 -9.5t-25 -10t-23.5 -7t-25 -3.5q-29 0 -47.5 19t-23.5 49q-67 -70 -150 -70q-60 0 -98.5 35.5t-38.5 95.5q0 169 285 171v53q0 100 -83 100q-39 0 -79 -16t-64 -43l-41 59q81 65 191 65q78 0 118.5 -42.5t40.5 -121.5v-248q0 -20 4.5 -29
t17.5 -9q12 0 47 14zM329 194v32q-37 0 -63.5 -2.5t-62 -11.5t-55 -31.5t-19.5 -57.5q0 -32 21.5 -48t57.5 -16q51 0 86 41.5t35 93.5z" />
    <glyph glyph-name="b" unicode="b" horiz-adv-x="558" 
d="M129 -1h-50l3 69v636q0 1 -3.5 14.5t-7 27.5t-3.5 16h97v-310q61 55 140 55q98 0 152.5 -77t54.5 -179q0 -70 -23 -128.5t-74 -97t-122 -38.5q-92 0 -146 64zM165 381v-182q0 -68 30 -109t95 -41q47 0 78.5 34.5t43 77t11.5 87.5q0 75 -34.5 131.5t-104.5 56.5
q-67 0 -119 -55z" />
    <glyph glyph-name="c" unicode="c" horiz-adv-x="450" 
d="M395 100l38 -63q-47 -28 -80.5 -39t-83.5 -11q-100 0 -162.5 79.5t-62.5 181.5q0 113 63.5 187t174.5 74q77 0 144 -51l-45 -58q-29 25 -52.5 34.5t-59.5 9.5q-65 0 -100.5 -59t-35.5 -128q0 -46 13.5 -89.5t47 -77.5t80.5 -34q36 0 61 10t60 34z" />
    <glyph glyph-name="d" unicode="d" horiz-adv-x="558" 
d="M505 2l-88 -11q-14 31 -19 68q-56 -72 -147 -72q-98 0 -152 77t-54 180q0 110 57.5 187t164.5 77q77 0 125 -44v239l-14 59h96v-619q0 -89 31 -141zM392 126v168q0 64 -30.5 105t-92.5 41q-38 0 -65.5 -17t-42 -45.5t-21.5 -60t-7 -67.5q0 -78 35 -134t108 -56
q58 0 116 66z" />
    <glyph glyph-name="e" unicode="e" 
d="M406 103l37 -60q-69 -56 -168 -56q-108 0 -169.5 72.5t-61.5 183.5q0 68 22.5 127t73 99t120.5 40q87 0 140 -51.5t53 -137.5q0 -64 -51 -64h-270v-10q0 -72 38.5 -130.5t106.5 -58.5q33 0 69 12.5t60 33.5zM138 318h209q11 0 14 4.5t3 16.5q0 45 -26 76t-70 31
q-48 0 -84.5 -39t-45.5 -89z" />
    <glyph glyph-name="f" unicode="f" horiz-adv-x="288" 
d="M177 0h-82v435h-75v52q3 0 17.5 1.5t21 3t13 4t12 7t8.5 10.5t5 14q3 12 11 63q15 81 65 130.5t130 49.5q53 0 97 -25l-23 -62q-28 25 -72 25q-41 0 -68.5 -19.5t-39.5 -54.5t-16 -66t-4 -71h143l-18 -62h-125v-435z" />
    <glyph glyph-name="g" unicode="g" horiz-adv-x="478" 
d="M471 438h-107q33 -43 33 -101q0 -72 -52 -122.5t-124 -50.5q-7 0 -19.5 2t-18.5 2q-14 0 -27 -19.5t-13 -35.5q0 -17 10.5 -26t21 -10t29.5 -1q16 0 49 1.5t48 1.5q156 0 156 -105q0 -103 -75.5 -153.5t-181.5 -50.5q-68 0 -123.5 31t-55.5 95q0 65 77 118q-46 23 -46 73
q0 3 12 21q41 56 57 86q-36 24 -56.5 62t-20.5 80q0 72 52 122.5t124 50.5q19 0 55.5 -7t54.5 -7q50 0 159 15zM220 224q37 0 63.5 32.5t26.5 79.5t-26.5 80t-62.5 33q-37 0 -63.5 -32.5t-26.5 -79.5t26.5 -80t62.5 -33zM158 -3q-21 -15 -36 -38.5t-15 -45.5q0 -34 35 -54.5
t73 -20.5q64 0 114.5 26t50.5 81q0 18 -9 30t-26 17t-31.5 6.5t-35.5 1.5q-60 0 -120 -3z" />
    <glyph glyph-name="h" unicode="h" horiz-adv-x="547" 
d="M466 0h-82v306q0 29 -2 47t-9.5 39.5t-25.5 32.5t-46 11q-58 0 -137 -66v-370h-82v703q0 1 -3 14.5t-6.5 28t-3.5 16.5h95v-324q76 72 151 72q151 0 151 -177v-333z" />
    <glyph glyph-name="i" unicode="i" horiz-adv-x="251" 
d="M185 664q0 -26 -17.5 -43.5t-43.5 -17.5q-25 0 -42.5 18t-17.5 43t17.5 43t42.5 18t43 -18t18 -43zM167 0h-83v438q0 1 -3 14.5t-6 28t-3 16.5h95v-497z" />
    <glyph glyph-name="j" unicode="j" horiz-adv-x="251" 
d="M187 664q0 -26 -17.5 -43.5t-43.5 -17.5t-43.5 17.5t-17.5 43.5q0 25 18 43t43 18t43 -18t18 -43zM25 -228l-14 40q21 11 35.5 29.5t22 36t11 45.5t4 44t0.5 46v425q0 1 -3 14.5t-6.5 28t-3.5 16.5h96v-472q0 -234 -142 -253z" />
    <glyph glyph-name="k" unicode="k" horiz-adv-x="465" 
d="M466 0h-99l-203 270v-270h-83v703q0 1 -3 14.5t-6.5 28t-3.5 16.5h96v-470l186 205h89l-191 -209z" />
    <glyph glyph-name="l" unicode="l" horiz-adv-x="251" 
d="M167 0h-83v704q0 1 -3 14t-6.5 27.5t-3.5 16.5h96v-762z" />
    <glyph glyph-name="m" unicode="m" horiz-adv-x="829" 
d="M747 0h-83v305q0 27 -2.5 46t-10 40.5t-25.5 32.5t-45 11q-56 0 -128 -68q2 -20 2 -35v-332h-83v305q0 28 -2 47t-10 40t-25.5 32t-45.5 11q-53 0 -126 -66v-369h-83v361q0 81 -32 133l91 10q14 -34 19 -69q76 74 145 74q97 0 137 -83q83 83 155 83q79 0 115.5 -47.5
t36.5 -129.5v-332z" />
    <glyph glyph-name="n" unicode="n" horiz-adv-x="547" 
d="M464 0h-82v305q0 23 -1 38t-5.5 34t-13 30.5t-25 19.5t-39.5 8q-66 0 -136 -66v-369h-82v352q0 96 -33 141l91 12q15 -38 19 -71q75 75 155 75q79 0 115.5 -47.5t36.5 -129.5v-332z" />
    <glyph glyph-name="o" unicode="o" horiz-adv-x="536" 
d="M268 -13q-105 0 -164.5 76.5t-59.5 184.5q0 107 60 184t164 77q106 0 165.5 -76t59.5 -185t-59.5 -185t-165.5 -76zM268 50q49 0 81.5 33t44 75.5t11.5 89.5t-12 89.5t-44.5 75.5t-80.5 33t-80.5 -33t-44 -75.5t-11.5 -89.5q0 -44 13 -87t45.5 -77t77.5 -34z" />
    <glyph glyph-name="p" unicode="p" horiz-adv-x="556" 
d="M177 -216h-96v568q0 92 -31 141l88 11q14 -31 19 -68q57 72 146 72q99 0 153 -77t54 -180q0 -110 -58 -187t-165 -77q-77 0 -124 44v-188zM163 369v-168q0 -64 30 -105t92 -41q38 0 65.5 17t42.5 45.5t22 60.5t7 67q0 78 -35 134t-109 56q-59 0 -115 -66z" />
    <glyph glyph-name="q" unicode="q" horiz-adv-x="556" 
d="M487 -216h-96v259q-59 -55 -140 -55q-66 0 -114.5 39.5t-70.5 96.5t-22 121q0 110 56.5 187t161.5 77q94 0 147 -65l18 53h50l-3 -69v-585q0 -1 3 -14.5t6.5 -28t3.5 -16.5zM391 115v181q0 68 -30 109t-95 41q-47 0 -78.5 -34t-43 -76.5t-11.5 -87.5q0 -75 34.5 -131.5
t104.5 -56.5q32 0 65 15t54 40z" />
    <glyph glyph-name="r" unicode="r" horiz-adv-x="349" 
d="M164 0h-83v360q0 88 -32 135l90 11q18 -44 23 -93q27 42 71 67.5t92 25.5l-20 -88q-81 0 -141 -88v-330z" />
    <glyph glyph-name="s" unicode="s" horiz-adv-x="430" 
d="M51 29l35 61q58 -40 106 -40q41 0 71 16t30 54q0 30 -24 52.5t-58.5 38.5t-68.5 33.5t-58 47.5t-24 72q0 70 51 107.5t124 37.5q76 0 133 -35l-29 -64q-47 36 -95 36q-39 0 -69 -16t-30 -52q0 -30 24 -52.5t58.5 -38t69 -33t58.5 -48.5t24 -74q0 -74 -50.5 -109.5
t-128.5 -35.5q-67 0 -149 42z" />
    <glyph glyph-name="t" unicode="t" horiz-adv-x="327" 
d="M293 63l14 -56q-59 -18 -99 -18q-61 0 -87.5 32.5t-26.5 96.5v316h-74v50q87 2 116 155h63q-22 -90 -22 -142h130l-18 -63h-112v-318q0 -32 11.5 -47.5t41.5 -15.5q23 0 63 10z" />
    <glyph glyph-name="u" unicode="u" horiz-adv-x="553" 
d="M534 73l17 -52q-7 -3 -22.5 -9.5t-25 -10t-23.5 -7t-25 -3.5q-29 0 -47 19t-23 49q-70 -72 -153 -72q-79 0 -115.5 47.5t-36.5 129.5v274q0 1 -3 14.5t-6.5 28t-3.5 16.5h96v-306q0 -27 2.5 -46t10 -40t25.5 -32.5t45 -11.5q56 0 96 35.5t40 91.5v250q0 1 -3 14.5
t-6.5 28t-3.5 16.5h96v-400q0 -20 4.5 -29t17.5 -9q12 0 47 14z" />
    <glyph glyph-name="v" unicode="v" horiz-adv-x="455" 
d="M265 -6h-76l-177 503h88l133 -378l132 378h78z" />
    <glyph glyph-name="w" unicode="w" horiz-adv-x="658" 
d="M489 -6h-60l-101 344l-107 -344h-61l-147 503h86l101 -340l106 340h59l102 -340l105 340h74z" />
    <glyph glyph-name="x" unicode="x" horiz-adv-x="446" 
d="M436 -1h-95l-123 193l-126 -193h-82l166 255l-155 243h95l109 -172l115 172h81l-154 -234z" />
    <glyph glyph-name="y" unicode="y" horiz-adv-x="456" 
d="M76 -217h-38v67h11q30 0 54 13.5t41.5 39.5t28 48t21.5 53l-182 493h90l132 -378l132 378h78l-176 -499q-77 -215 -192 -215z" />
    <glyph glyph-name="z" unicode="z" horiz-adv-x="445" 
d="M402 0h-370v47l257 386h-234v64h346v-48l-258 -386h270z" />
    <glyph glyph-name="braceleft" unicode="{" horiz-adv-x="349" 
d="M292 -135h-25q-145 0 -145 163v164q0 36 -15 61t-49 25v45q64 0 64 97v153q0 163 148 163h22v-47q-55 0 -72 -17t-17 -71v-170q0 -108 -66 -131q66 -23 66 -130v-178q0 -49 19 -64.5t70 -15.5v-47z" />
    <glyph glyph-name="bar" unicode="|" horiz-adv-x="235" 
d="M153 -107h-71v855h71v-855z" />
    <glyph glyph-name="braceright" unicode="}" horiz-adv-x="349" 
d="M80 -135h-22v47q54 0 71 17.5t17 70.5v170q0 107 66 130q-66 23 -66 131v178q0 48 -19 64t-69 16v47h7q85 0 123.5 -38t38.5 -125v-164q0 -36 15.5 -61t49.5 -25v-45q-65 0 -65 -97v-153q0 -163 -147 -163z" />
    <glyph glyph-name="asciitilde" unicode="~" horiz-adv-x="663" 
d="M527 345l52 -47q-24 -38 -64 -67t-79 -29q-40 0 -108.5 34.5t-106.5 34.5q-26 0 -48.5 -21t-35.5 -49l-53 44q19 42 56.5 71.5t80.5 29.5q48 0 120 -34.5t95 -34.5q27 0 52 20t39 48z" />
    <glyph glyph-name="uni00A0" unicode="&#xa0;" horiz-adv-x="230" 
 />
    <glyph glyph-name="exclamdown" unicode="&#xa1;" horiz-adv-x="329" 
d="M206 -126h-81q-18 0 -18 16l29 493h58l30 -495q0 -14 -18 -14zM99 548q0 28 19 47t47 19q27 0 46.5 -19.5t19.5 -46.5t-19.5 -46.5t-46.5 -19.5t-46.5 19.5t-19.5 46.5z" />
    <glyph glyph-name="cent" unicode="&#xa2;" horiz-adv-x="450" 
d="M248 -118h-72l31 112q-82 23 -124 92.5t-42 160.5q0 106 56 178.5t159 81.5l10 105h74l-30 -107q64 -10 113 -48l-44 -58q-31 25 -53.5 34.5t-59.5 9.5q-65 0 -100.5 -59t-35.5 -128q0 -46 13.5 -89.5t47 -77.5t80.5 -34q37 0 62 10t59 34l38 -64q-72 -49 -157 -49h-15z
" />
    <glyph glyph-name="sterling" unicode="&#xa3;" horiz-adv-x="581" 
d="M535 0h-479v69h93v290h-76v68h76v118q0 91 54.5 142t145.5 51q54 0 100 -26t75 -72l-75 -42q-36 71 -101 71q-51 0 -78 -34.5t-27 -87.5v-120h129v-68h-129v-290h292v-69z" />
    <glyph glyph-name="currency" unicode="&#xa4;" horiz-adv-x="536" 
d="M427 218l58 -56q-17 -16 -49 -48q-37 34 -54 53q-50 -42 -116 -42q-64 0 -117 42l-16.5 -16.5l-19.5 -19.5l-17 -17l-49 49l56 56q-31 52 -31 113q0 60 32 113l-57 57q25 24 49 49l54 -55q52 42 116 42q65 0 115 -41l55 54l49 -49l-58 -57q33 -54 33 -113q0 -60 -33 -114
zM266 186q50 0 86 41t36 105q0 61 -35 103t-87 42t-86.5 -42t-34.5 -103q0 -63 36 -104.5t85 -41.5z" />
    <glyph glyph-name="yen" unicode="&#xa5;" horiz-adv-x="502" 
d="M289 0h-81v163h-146v48h146v35l-18 25h-128v47h95l-125 178h91l135 -189l126 189h76l-121 -178h98v-47h-130l-18 -25v-35h148v-48h-148v-163z" />
    <glyph glyph-name="brokenbar" unicode="&#xa6;" horiz-adv-x="238" 
d="M152 393h-68v349h68v-349zM152 -115h-68v348h68v-348z" />
    <glyph glyph-name="section" unicode="&#xa7;" horiz-adv-x="497" 
d="M71 -43l60 47q19 -25 32 -38.5t36.5 -27.5t47.5 -14q34 0 56.5 21.5t22.5 55.5q0 28 -28 63t-68 69t-80.5 69.5t-68.5 76.5t-28 77q0 50 30 82t80 45q-28 32 -40.5 55t-12.5 58q0 61 45.5 98.5t108.5 37.5q102 0 154 -86l-54 -40q-45 67 -103 67q-29 0 -50 -19t-21 -47
q0 -27 27.5 -58.5t67 -63t78.5 -65t66.5 -75.5t27.5 -84q0 -47 -27.5 -81t-73.5 -48q53 -60 53 -121q0 -67 -48 -106.5t-117 -39.5q-50 0 -95.5 25t-77.5 67zM328 339l-120 102q-27 0 -53 -20t-26 -49q0 -14 11 -33.5t25 -36t38.5 -39.5t39 -35t39.5 -33t28 -23
q26 4 48 24.5t22 45.5q0 53 -52 97z" />
    <glyph glyph-name="dieresis" unicode="&#xa8;" horiz-adv-x="276" 
d="M276 624q0 -23 -17 -40t-40 -17t-39.5 17t-16.5 40t16.5 40t39.5 17q24 0 40.5 -16.5t16.5 -40.5zM113 624q0 -23 -17 -40t-40 -17t-39.5 17t-16.5 40t16.5 40t39.5 17q24 0 40.5 -16.5t16.5 -40.5z" />
    <glyph glyph-name="copyright" unicode="&#xa9;" horiz-adv-x="635" 
d="M508 442q80 -80 80 -192t-80 -192t-192 -80t-192 80t-80 192t80 192t192 80t192 -80zM480 85q69 69 69 165t-68.5 164.5t-164.5 68.5t-164.5 -68.5t-68.5 -164.5t68.5 -164.5t164.5 -68.5t164 68zM400 162l26 -43q-55 -31 -108 -31q-68 0 -107.5 46.5t-39.5 116.5
q0 72 42 117.5t113 45.5q44 0 95 -33l-30 -38q-32 27 -73 27t-63.5 -35.5t-22.5 -78.5q0 -45 23 -83.5t66 -38.5q37 0 79 28z" />
    <glyph glyph-name="ordfeminine" unicode="&#xaa;" horiz-adv-x="315" 
d="M290 454l15 -44q-5 -2 -16 -6.5t-18 -7.5t-17 -5.5t-18 -2.5q-34 0 -46 37q-40 -38 -89 -38q-40 0 -65.5 24.5t-25.5 64.5q0 114 176 116v27q0 57 -45 57q-22 0 -47.5 -12.5t-41.5 -29.5l-33 50q55 46 126 46q51 0 77.5 -29t26.5 -81v-153q0 -23 7 -23zM259 279h-219v50
h219v-50zM186 523v14q-21 0 -35.5 -1.5t-34 -6.5t-30 -18t-10.5 -33q0 -16 13 -25t29 -9q29 0 48.5 25t19.5 54z" />
    <glyph glyph-name="guillemotleft" unicode="&#xab;" horiz-adv-x="466" 
d="M263 182l-59 -8l-149 162l145 164l61 -12l-116 -152zM411 182l-59 -8l-149 162l145 164l61 -12l-116 -152z" />
    <glyph glyph-name="logicalnot" unicode="&#xac;" horiz-adv-x="638" 
d="M565 89h-61v190h-432v60h493v-250z" />
    <glyph glyph-name="uni00AD" unicode="&#xad;" horiz-adv-x="636" 
d="M564 216h-492v61h492v-61z" />
    <glyph glyph-name="registered" unicode="&#xae;" horiz-adv-x="459" 
d="M231 405q-83 0 -140.5 57.5t-57.5 140.5t57.5 140.5t140.5 57.5q82 0 140.5 -58t58.5 -140t-58.5 -140t-140.5 -58zM348 486q49 49 49 117t-49 116.5t-117 48.5t-116.5 -48.5t-48.5 -116.5t48.5 -116.5t116.5 -48.5t117 48zM343 492h-60l-65 96h-18v-96h-50v225h88
q78 0 78 -64q0 -40 -46 -57zM200 625h24q42 0 42 30q0 25 -35 25h-31v-55z" />
    <glyph glyph-name="macron" unicode="&#xaf;" horiz-adv-x="274" 
d="M289 596h-304v64h304v-64z" />
    <glyph glyph-name="degree" unicode="&#xb0;" horiz-adv-x="388" 
d="M300 699q44 -44 44 -106t-44 -106t-106 -44t-106 44t-44 106t44 106t106 44t106 -44zM131 529q26 -26 63 -26t62 26.5t25 63.5t-25 63.5t-62 26.5t-62.5 -26.5t-25.5 -63.5t25 -64z" />
    <glyph glyph-name="plusminus" unicode="&#xb1;" horiz-adv-x="632" 
d="M567 262h-215v-165h-70v165h-214v70h214v164h70v-164h215v-70zM567 -1h-499v70h499v-70z" />
    <glyph glyph-name="twosuperior" unicode="&#xb2;" horiz-adv-x="457" 
d="M386 434h-328v38q10 8 27 22t60.5 54.5t77 78t60.5 85t27 83.5q0 33 -21 54t-58 21q-30 0 -61.5 -13t-47.5 -27l-17 -13l-32 47q3 3 8 7t22 15t36 19.5t48 15.5t60 7q76 0 111.5 -37.5t35.5 -89.5q0 -42 -23 -88t-56 -82.5t-65.5 -66.5t-55.5 -46l-23 -16h234z" />
    <glyph glyph-name="threesuperior" unicode="&#xb3;" horiz-adv-x="457" 
d="M73 423l-10 51q120 6 185.5 41.5t65.5 90.5q0 73 -114 73l-35 -2l-8 47q138 28 138 99q0 47 -70 47q-30 0 -65.5 -15t-60.5 -35l-32 46q34 27 83.5 44.5t93.5 17.5q53 0 90.5 -21t37.5 -69q0 -73 -95 -110q50 -6 83.5 -36t33.5 -78q0 -24 -8 -47t-30 -49t-56.5 -45.5
t-93 -33t-133.5 -16.5z" />
    <glyph glyph-name="acute" unicode="&#xb4;" horiz-adv-x="281" 
d="M109 571h-78l96 152h122z" />
    <glyph glyph-name="mu" unicode="&#xb5;" horiz-adv-x="555" 
d="M534 73l17 -52q-7 -3 -22.5 -9.5t-25 -10t-23.5 -7t-25 -3.5q-29 0 -47 19t-23 49q-31 -30 -73.5 -51t-79.5 -21q-33 0 -66 14v-188h-85v625q0 1 -3 14.5t-6.5 28t-3.5 16.5h95v-306q0 -26 2.5 -45.5t10.5 -40.5t25.5 -32.5t44.5 -11.5q34 0 72 19.5t65 46.5v311
q0 1 -3 14.5t-6.5 28t-3.5 16.5h95v-400q0 -20 4.5 -29t17.5 -9q12 0 47 14z" />
    <glyph glyph-name="mu" unicode="&#x3bc;" horiz-adv-x="555" 
d="M534 73l17 -52q-7 -3 -22.5 -9.5t-25 -10t-23.5 -7t-25 -3.5q-29 0 -47 19t-23 49q-31 -30 -73.5 -51t-79.5 -21q-33 0 -66 14v-188h-85v625q0 1 -3 14.5t-6.5 28t-3.5 16.5h95v-306q0 -26 2.5 -45.5t10.5 -40.5t25.5 -32.5t44.5 -11.5q34 0 72 19.5t65 46.5v311
q0 1 -3 14.5t-6.5 28t-3.5 16.5h95v-400q0 -20 4.5 -29t17.5 -9q12 0 47 14z" />
    <glyph glyph-name="paragraph" unicode="&#xb6;" horiz-adv-x="500" 
d="M229 -47v379q-79 0 -134 54t-55 134q0 98 61.5 148t161.5 50h192v-54h-56v-654q0 -46 -32.5 -78.5t-78.5 -32.5q-5 0 -17 2q-15 -27 -41 -43t-57 -16q-46 0 -78.5 32.5t-32.5 78.5t32.5 78.5t78.5 32.5v-54q-23 0 -40 -17t-17 -40t17 -40t40 -17t39.5 17t16.5 40zM345 10
v654h-61v-711h4q23 0 40 17t17 40z" />
    <glyph glyph-name="periodcentered" unicode="&#xb7;" horiz-adv-x="293" 
d="M81 260q0 28 19 47t47 19q27 0 46.5 -19.5t19.5 -46.5t-19.5 -46.5t-46.5 -19.5t-46.5 19.5t-19.5 46.5z" />
    <glyph glyph-name="cedilla" unicode="&#xb8;" horiz-adv-x="280" 
d="M32 -192l24 46q42 -23 64 -23q18 0 31 11t13 28q0 16 -10.5 25.5t-27.5 9.5h-47q-7 0 -10 4.5t-3 8.5v5l48 86h47l-29 -55h11q41 0 72.5 -20t31.5 -61q0 -93 -130 -93q-41 0 -85 28z" />
    <glyph glyph-name="onesuperior" unicode="&#xb9;" horiz-adv-x="457" 
d="M395 434h-304v59h124v345q-20 -6 -60.5 -17.5t-60.5 -17.5q-2 6 -18 49q86 29 169 66h50v-425h100v-59z" />
    <glyph glyph-name="ordmasculine" unicode="&#xba;" horiz-adv-x="332" 
d="M13 566q0 71 41.5 121t111.5 50q71 0 112 -49.5t41 -121.5t-41 -121.5t-112 -49.5t-112 49.5t-41 121.5zM276 279h-219v50h219v-50zM166 447q42 0 62.5 36.5t20.5 82.5q0 45 -20.5 82t-62.5 37q-43 0 -63.5 -36.5t-20.5 -82.5q0 -43 22 -81t62 -38z" />
    <glyph glyph-name="guillemotright" unicode="&#xbb;" horiz-adv-x="466" 
d="M114 171l-60 8l119 154l-116 152l61 12l144 -164zM263 171l-60 8l119 154l-116 152l61 12l144 -164z" />
    <glyph glyph-name="onequarter" unicode="&#xbc;" horiz-adv-x="1094" 
d="M421 -22h-62q206 516 308 775h63q-103 -259 -309 -775zM395 248h-304v59h124v345l-121 -35q-2 6 -18 49q86 29 169 66h50v-425h100v-59zM908 0h-80v110h-229v40q77 111 229 333h80v-314h75q-4 -14 -17 -59h-58v-110zM828 169v120q0 17 1.5 57t1.5 52q-12 -24 -31 -55.5
t-35 -55t-42.5 -62t-38.5 -56.5h144z" />
    <glyph glyph-name="onehalf" unicode="&#xbd;" horiz-adv-x="1113" 
d="M395 248h-304v59h124v345l-121 -35q-2 6 -18 49q86 29 169 66h50v-425h100v-59zM421 -22h-62q206 516 308 775h63q-103 -259 -309 -775zM1003 0h-328v38q1 1 20 16q232 198 232 304q0 33 -21.5 53t-57.5 20q-65 0 -125 -50l-32 48q84 65 175 65q74 0 111 -37t37 -92
q0 -46 -28 -96.5t-70.5 -93t-69.5 -65.5t-49 -38h225z" />
    <glyph glyph-name="threequarters" unicode="&#xbe;" horiz-adv-x="1076" 
d="M73 236l-10 51q119 6 184.5 41.5t65.5 90.5q0 73 -114 73l-34 -2l-8 47q135 27 135 100q0 46 -67 46q-31 0 -66.5 -15t-59.5 -35q-4 6 -15 22t-17 24q34 27 83 44.5t94 17.5q53 0 90.5 -21t37.5 -69q0 -73 -96 -110q51 -6 84.5 -36t33.5 -78q0 -24 -8 -47t-30 -49
t-56.5 -45.5t-93 -33t-133.5 -16.5zM394 -22h-62q60 150 171 429.5t137 345.5h62q-26 -66 -137 -345.5t-171 -429.5zM882 0h-80v110h-229v40l228 333h81v-314h75q-14 -45 -17 -59h-58v-110zM802 169v120q0 17 1.5 57t1.5 52q-31 -61 -148 -229h145z" />
    <glyph glyph-name="questiondown" unicode="&#xbf;" horiz-adv-x="431" 
d="M357 -37l27 -57q-45 -32 -132 -32q-82 0 -143 44.5t-61 124.5q0 61 41 112.5t100 70.5q17 6 20.5 10.5t3.5 20.5v123h65v-195q-59 -10 -100.5 -45t-41.5 -91q0 -52 36.5 -83t88.5 -31q62 0 96 28zM183 544q0 28 19 47t47 19q27 0 46.5 -19.5t19.5 -46.5t-19.5 -46.5
t-46.5 -19.5t-46.5 19.5t-19.5 46.5z" />
    <glyph glyph-name="Agrave" unicode="&#xc0;" horiz-adv-x="631" 
d="M614 0h-103l-82 227h-243l-84 -227h-84l253 670h91zM404 295l-96 260l-96 -260h192zM373 721h-78l-140 152h123z" />
    <glyph glyph-name="Aacute" unicode="&#xc1;" horiz-adv-x="631" 
d="M619 0h-103l-82 227h-243l-84 -227h-84l253 670h91zM409 295l-96 260l-96 -260h192zM354 716h-78l96 152h122z" />
    <glyph glyph-name="Acircumflex" unicode="&#xc2;" horiz-adv-x="631" 
d="M614 0h-103l-82 227h-243l-84 -227h-84l253 670h91zM404 295l-96 260l-96 -260h192zM462 696h-69l-79 82l-76 -81h-67l102 154h83z" />
    <glyph glyph-name="Atilde" unicode="&#xc3;" horiz-adv-x="631" 
d="M435 800h48q-4 -38 -26.5 -68.5t-58.5 -30.5q-28 0 -76 19.5t-74 19.5q-11 0 -20.5 -8t-12.5 -19h-50q6 40 31 70t63 30q29 0 76 -19.5t65 -19.5q26 0 35 26zM614 0h-103l-82 227h-243l-84 -227h-84l253 670h91zM404 295l-96 260l-96 -260h192z" />
    <glyph glyph-name="Adieresis" unicode="&#xc4;" horiz-adv-x="631" 
d="M614 0h-103l-82 227h-243l-84 -227h-84l253 670h91zM404 295l-96 260l-96 -260h192zM457 774q0 -23 -17 -40t-40 -17t-39.5 17t-16.5 40t16.5 40t39.5 17q24 0 40.5 -16.5t16.5 -40.5zM294 774q0 -23 -17 -40t-40 -17t-39.5 17t-16.5 40t16.5 40t39.5 17q24 0 40.5 -16.5
t16.5 -40.5z" />
    <glyph glyph-name="Aring" unicode="&#xc5;" horiz-adv-x="631" 
d="M614 0h-103l-82 226h-243l-84 -226h-84l245 650q-22 13 -35 36t-13 49q0 41 29 70t70 29t69 -29t28 -70q0 -56 -43 -82zM361 735q0 19 -14.5 33.5t-33.5 14.5t-33.5 -14.5t-14.5 -33.5t14.5 -33.5t33.5 -14.5q20 0 34 14t14 34zM404 294l-96 260l-96 -260h192z" />
    <glyph glyph-name="AE" unicode="&#xc6;" horiz-adv-x="794" 
d="M747 0h-357v248h-179l-114 -248h-85l301 663l-14 65h448v-68h-265v-250h234v-72h-234v-267h265v-71zM390 320v321l-147 -321h147z" />
    <glyph glyph-name="Ccedilla" unicode="&#xc7;" horiz-adv-x="624" 
d="M265 -192l25 46q40 -23 64 -23q17 0 30.5 11t13.5 28q0 16 -10.5 25.5t-27.5 9.5h-48q-15 0 -15 12q0 2 2 6l38 68q-137 17 -214 122.5t-77 252.5q0 162 91 267t250 105q59 0 121.5 -20.5t96.5 -58.5l-52 -58q-28 31 -76 49t-92 18q-62 0 -109 -26.5t-74 -72t-40.5 -98
t-13.5 -111.5q0 -60 13.5 -112t41 -94t75 -66.5t109.5 -24.5q45 0 94.5 17t82.5 45l43 -67q-40 -33 -103 -51.5t-121 -18.5l-18 -34h12q41 0 72.5 -20t31.5 -61q0 -93 -130 -93q-42 0 -86 28z" />
    <glyph glyph-name="Egrave" unicode="&#xc8;" horiz-adv-x="549" 
d="M509 0h-423v603q0 1 -3.5 16t-7 31t-3.5 18h437v-68h-329v-224h255v-70h-255v-237h329v-69zM347 721h-78l-140 152h123z" />
    <glyph glyph-name="Eacute" unicode="&#xc9;" horiz-adv-x="549" 
d="M509 0h-423v603q0 1 -3.5 16t-7 31t-3.5 18h437v-68h-329v-224h255v-70h-255v-237h329v-69zM337 717h-78l96 152h122z" />
    <glyph glyph-name="Ecircumflex" unicode="&#xca;" horiz-adv-x="549" 
d="M509 0h-423v604q0 1 -3.5 16t-7 31t-3.5 18h437v-68h-329v-224h255v-70h-255v-238h329v-69zM446 696h-69l-79 82l-76 -81h-67l102 154h83z" />
    <glyph glyph-name="Edieresis" unicode="&#xcb;" horiz-adv-x="549" 
d="M507 0h-423v604q0 1 -3.5 16t-7 31t-3.5 18h437v-68h-329v-224h255v-70h-255v-238h329v-69zM442 778q0 -23 -17 -40t-40 -17t-39.5 17t-16.5 40t16.5 40t39.5 17q24 0 40.5 -16.5t16.5 -40.5zM279 778q0 -23 -17 -40t-40 -17t-39.5 17t-16.5 40t16.5 40t39.5 17
q24 0 40.5 -16.5t16.5 -40.5z" />
    <glyph glyph-name="Igrave" unicode="&#xcc;" horiz-adv-x="268" 
d="M181 0h-95v602q0 1 -3.5 16t-7 31.5t-3.5 18.5h109v-668zM181 719h-78l-140 152h123z" />
    <glyph glyph-name="Iacute" unicode="&#xcd;" horiz-adv-x="270" 
d="M180 0h-94v603l-15 66h109v-669zM148 716h-78l96 152h122z" />
    <glyph glyph-name="Icircumflex" unicode="&#xce;" horiz-adv-x="270" 
d="M181 0h-95v602l-15 66h110v-668zM277 696h-69l-79 82l-76 -81h-67l102 154h83z" />
    <glyph glyph-name="Idieresis" unicode="&#xcf;" horiz-adv-x="270" 
d="M180 0h-95v602q0 1 -3.5 16t-7 31.5t-3.5 18.5h109v-668zM270 778q0 -23 -17 -40t-40 -17t-39.5 17t-16.5 40t16.5 40t39.5 17q24 0 40.5 -16.5t16.5 -40.5zM107 778q0 -23 -17 -40t-40 -17t-39.5 17t-16.5 40t16.5 40t39.5 17q24 0 40.5 -16.5t16.5 -40.5z" />
    <glyph glyph-name="Eth" unicode="&#xd0;" horiz-adv-x="714" 
d="M326 0h-237v331h-81v64h81v267q0 1 -3.5 16t-7 31.5t-3.5 18.5h187q394 0 394 -366q0 -164 -83.5 -263t-246.5 -99zM182 69h132q128 0 186.5 81t58.5 214q0 155 -75.5 225t-228.5 70h-73v-264h155v-64h-155v-262z" />
    <glyph glyph-name="Ntilde" unicode="&#xd1;" horiz-adv-x="714" 
d="M627 -6h-59l-404 563v-557h-77v602q0 1 -3.5 16t-7 31.5t-3.5 18.5h124l354 -488v488h76v-674zM481 799h47q-4 -38 -26.5 -68.5t-58.5 -30.5q-29 0 -76.5 19.5t-72.5 19.5q-22 0 -34 -27h-49q5 40 30 70t64 30q28 0 75 -19.5t65 -19.5q27 0 36 26z" />
    <glyph glyph-name="Ograve" unicode="&#xd2;" horiz-adv-x="737" 
d="M369 -13q-140 0 -231 101.5t-91 243.5q0 143 90.5 244.5t231.5 101.5t231.5 -101.5t90.5 -244.5q0 -142 -90.5 -243.5t-231.5 -101.5zM369 55q105 0 164.5 84t59.5 194q0 109 -59.5 193t-164.5 84q-104 0 -164 -84t-60 -193q0 -69 24 -131t76.5 -104.5t123.5 -42.5z
M411 720h-78l-140 152h123z" />
    <glyph glyph-name="Oacute" unicode="&#xd3;" horiz-adv-x="737" 
d="M47 333q0 143 90.5 244.5t231.5 101.5t231.5 -101.5t90.5 -244.5q0 -142 -90.5 -243.5t-231.5 -101.5t-231.5 101.5t-90.5 243.5zM369 56q105 0 164.5 84t59.5 193q0 110 -59.5 194t-164.5 84q-71 0 -123.5 -42.5t-76.5 -104.5t-24 -131q0 -109 60 -193t164 -84zM387 718
h-78l96 152h122z" />
    <glyph glyph-name="Ocircumflex" unicode="&#xd4;" horiz-adv-x="737" 
d="M369 -13q-140 0 -231 101.5t-91 243.5q0 143 90.5 244.5t231.5 101.5t231.5 -101.5t90.5 -244.5q0 -142 -90.5 -243.5t-231.5 -101.5zM369 55q105 0 164.5 84t59.5 194q0 109 -59.5 193t-164.5 84q-104 0 -164 -84t-60 -193q0 -69 24 -131t76.5 -104.5t123.5 -42.5z
M512 694h-69l-79 82l-76 -81h-67l102 154h83z" />
    <glyph glyph-name="Otilde" unicode="&#xd5;" horiz-adv-x="736" 
d="M46 333q0 143 90.5 244.5t231.5 101.5t231.5 -101.5t90.5 -244.5q0 -142 -90.5 -243.5t-231.5 -101.5t-231.5 101.5t-90.5 243.5zM368 56q105 0 164.5 84t59.5 193q0 110 -59.5 194t-164.5 84q-71 0 -123.5 -42.5t-76.5 -104.5t-24 -131q0 -109 60 -193t164 -84zM486 801
h47q-4 -38 -26.5 -68.5t-58.5 -30.5q-29 0 -76.5 19.5t-72.5 19.5q-22 0 -34 -27h-49q5 40 30 70t64 30q28 0 75 -19.5t65 -19.5q27 0 36 26z" />
    <glyph glyph-name="Odieresis" unicode="&#xd6;" horiz-adv-x="737" 
d="M47 333q0 143 90.5 244.5t231.5 101.5t231.5 -101.5t90.5 -244.5q0 -142 -90.5 -243.5t-231.5 -101.5t-231.5 101.5t-90.5 243.5zM369 56q105 0 164.5 84t59.5 193q0 110 -59.5 194t-164.5 84q-71 0 -123.5 -42.5t-76.5 -104.5t-24 -131q0 -109 60 -193t164 -84zM505 774
q0 -23 -17 -40t-40 -17t-39.5 17t-16.5 40t16.5 40t39.5 17q24 0 40.5 -16.5t16.5 -40.5zM342 774q0 -23 -17 -40t-40 -17t-39.5 17t-16.5 40t16.5 40t39.5 17q24 0 40.5 -16.5t16.5 -40.5z" />
    <glyph glyph-name="multiply" unicode="&#xd7;" horiz-adv-x="534" 
d="M463 94l-44 -44l-152 152l-152 -152l-44 44l153 152l-153 152l44 44l152 -152l152 152l44 -44l-153 -152z" />
    <glyph glyph-name="Oslash" unicode="&#xd8;" horiz-adv-x="736" 
d="M126 -57l-52 33l68 102q-96 103 -96 285q0 161 84 267t241 106q96 0 168 -46l50 77l54 -31l-55 -84q102 -103 102 -291q0 -103 -35.5 -186t-110.5 -135.5t-179 -52.5q-101 0 -176 52zM495 624q-51 44 -127 44q-60 0 -105.5 -26.5t-70 -71.5t-36.5 -96t-12 -108
q0 -128 48 -208q165 251 303 466zM539 575q-103 -156 -307 -468q55 -52 138 -52q60 0 104.5 26.5t69.5 71t36.5 95t11.5 107.5q0 137 -53 220z" />
    <glyph glyph-name="Ugrave" unicode="&#xd9;" horiz-adv-x="707" 
d="M543 257v411h77v-411q0 -127 -70.5 -198.5t-198.5 -71.5q-127 0 -196 65.5t-69 190.5v360q0 1 -3.5 16t-7.5 31t-4 18h110v-425q0 -88 43.5 -137.5t130.5 -49.5q90 0 139 55t49 146zM404 721h-78l-140 152h123z" />
    <glyph glyph-name="Uacute" unicode="&#xda;" horiz-adv-x="707" 
d="M543 258v411h77v-411q0 -127 -70.5 -198.5t-198.5 -71.5q-127 0 -196 65.5t-69 190.5v360q0 1 -3.5 16t-7.5 31t-4 18h110v-425q0 -88 43.5 -137.5t130.5 -49.5q90 0 139 55t49 146zM392 717h-78l96 152h122z" />
    <glyph glyph-name="Ucircumflex" unicode="&#xdb;" horiz-adv-x="707" 
d="M543 258v411h77v-411q0 -127 -70.5 -198.5t-198.5 -71.5q-127 0 -196 65.5t-69 190.5v360q0 1 -3.5 16t-7.5 31t-4 18h110v-425q0 -88 43.5 -137.5t130.5 -49.5q90 0 139 55t49 146zM504 696h-69l-79 82l-76 -81h-67l102 154h83z" />
    <glyph glyph-name="Udieresis" unicode="&#xdc;" horiz-adv-x="707" 
d="M543 258v411h77v-411q0 -127 -70.5 -198.5t-198.5 -71.5q-127 0 -196 65t-69 191v360q0 1 -3.5 16t-7.5 31t-4 18h110v-425q0 -88 43.5 -137.5t130.5 -49.5q90 0 139 55t49 146zM502 774q0 -23 -17 -40t-40 -17t-39.5 17t-16.5 40t16.5 40t39.5 17q24 0 40.5 -16.5
t16.5 -40.5zM339 774q0 -23 -17 -40t-40 -17t-39.5 17t-16.5 40t16.5 40t39.5 17q24 0 40.5 -16.5t16.5 -40.5z" />
    <glyph glyph-name="Yacute" unicode="&#xdd;" horiz-adv-x="584" 
d="M343 0h-95v300l-216 369h107l169 -284l157 284h88l-210 -369v-300zM344 717h-78l96 152h122z" />
    <glyph glyph-name="Thorn" unicode="&#xde;" horiz-adv-x="575" 
d="M182 251h107q67 0 106.5 41t39.5 108t-37.5 104.5t-107.5 37.5h-108v-291zM182 1h-93v661l-15 66h109v-117h99q115 0 183 -50.5t68 -160.5q0 -107 -71 -162t-179 -55h-101v-182z" />
    <glyph glyph-name="germandbls" unicode="&#xdf;" horiz-adv-x="552" 
d="M236 8l28 58q48 -13 69 -13q45 0 79.5 32t34.5 84q0 38 -20.5 66.5t-49.5 46.5t-58 34t-49.5 37t-20.5 47q0 22 21.5 42.5t47 35.5t47 42.5t21.5 61.5q0 89 -80 89q-36 0 -61.5 -19t-37.5 -50.5t-17 -62.5t-5 -65v-474h-83v434h-74v55q45 0 61 16t26 63q39 173 191 173
q79 0 123.5 -40.5t44.5 -117.5q0 -20 -3 -37t-11 -30.5t-13.5 -22.5t-20.5 -20t-22 -15.5t-26.5 -16t-26.5 -15.5q-29 -17 -29 -22q0 -9 45 -31q32 -15 50 -24.5t44 -27.5t39.5 -35.5t24 -44t10.5 -57.5q0 -89 -53 -142.5t-141 -53.5q-53 0 -105 20z" />
    <glyph glyph-name="agrave" unicode="&#xe0;" horiz-adv-x="491" 
d="M481 73l17 -52q-7 -3 -22.5 -9.5t-25 -10t-23.5 -7t-25 -3.5q-29 0 -47.5 19t-23.5 49q-67 -70 -150 -70q-60 0 -98.5 35.5t-38.5 95.5q0 169 285 171v53q0 100 -83 100q-39 0 -79 -16t-64 -43l-41 59q81 65 191 65q78 0 118.5 -42.5t40.5 -121.5v-248q0 -20 4.5 -29
t17.5 -9q12 0 47 14zM329 194v32q-37 0 -63.5 -2.5t-62 -11.5t-55 -31.5t-19.5 -57.5q0 -32 21.5 -48t57.5 -16q51 0 86 41.5t35 93.5zM294 576h-78l-140 152h123z" />
    <glyph glyph-name="aacute" unicode="&#xe1;" 
d="M283 577h-78l96 152h122zM481 73l17 -52q-7 -3 -22.5 -9.5t-25 -10t-23.5 -7t-25 -3.5q-29 0 -47.5 19t-23.5 49q-67 -70 -150 -70q-60 0 -98.5 35.5t-38.5 95.5q0 169 285 171v53q0 100 -83 100q-39 0 -79 -16t-64 -43l-41 59q81 65 191 65q78 0 118.5 -42.5
t40.5 -121.5v-248q0 -20 4.5 -29t17.5 -9q12 0 47 14zM329 194v32q-37 0 -63.5 -2.5t-62 -11.5t-55 -31.5t-19.5 -57.5q0 -32 21.5 -48t57.5 -16q51 0 86 41.5t35 93.5z" />
    <glyph glyph-name="acircumflex" unicode="&#xe2;" 
d="M390 574h-69l-79 82l-76 -81h-67l102 154h83zM481 73l17 -52q-7 -3 -22.5 -9.5t-25 -10t-23.5 -7t-25 -3.5q-29 0 -47.5 19t-23.5 49q-67 -70 -150 -70q-60 0 -98.5 35.5t-38.5 95.5q0 169 285 171v53q0 100 -83 100q-39 0 -79 -16t-64 -43l-41 59q81 65 191 65
q78 0 118.5 -42.5t40.5 -121.5v-248q0 -20 4.5 -29t17.5 -9q12 0 47 14zM329 194v32q-37 0 -63.5 -2.5t-62 -11.5t-55 -31.5t-19.5 -57.5q0 -32 21.5 -48t57.5 -16q51 0 86 41.5t35 93.5z" />
    <glyph glyph-name="atilde" unicode="&#xe3;" 
d="M365 672h47q-4 -38 -26.5 -68.5t-58.5 -30.5q-29 0 -76.5 19.5t-72.5 19.5q-22 0 -34 -27h-49q5 40 30 70t64 30q28 0 75 -19.5t65 -19.5q27 0 36 26zM481 73l17 -52q-7 -3 -22.5 -9.5t-25 -10t-23.5 -7t-25 -3.5q-29 0 -47.5 19t-23.5 49q-67 -70 -150 -70
q-60 0 -98.5 35.5t-38.5 95.5q0 169 285 171v53q0 100 -83 100q-39 0 -79 -16t-64 -43l-41 59q81 65 191 65q78 0 118.5 -42.5t40.5 -121.5v-248q0 -20 4.5 -29t17.5 -9q12 0 47 14zM329 194v32q-37 0 -63.5 -2.5t-62 -11.5t-55 -31.5t-19.5 -57.5q0 -32 21.5 -48t57.5 -16
q51 0 86 41.5t35 93.5z" />
    <glyph glyph-name="adieresis" unicode="&#xe4;" 
d="M389 624q0 -23 -17 -40t-40 -17t-39.5 17t-16.5 40t16.5 40t39.5 17q24 0 40.5 -16.5t16.5 -40.5zM226 624q0 -23 -17 -40t-40 -17t-39.5 17t-16.5 40t16.5 40t39.5 17q24 0 40.5 -16.5t16.5 -40.5zM481 73l17 -52q-7 -3 -22.5 -9.5t-25 -10t-23.5 -7t-25 -3.5
q-29 0 -47.5 19t-23.5 49q-67 -70 -150 -70q-60 0 -98.5 35.5t-38.5 95.5q0 169 285 171v53q0 100 -83 100q-39 0 -79 -16t-64 -43l-41 59q81 65 191 65q78 0 118.5 -42.5t40.5 -121.5v-248q0 -20 4.5 -29t17.5 -9q12 0 47 14zM329 194v32q-37 0 -63.5 -2.5t-62 -11.5
t-55 -31.5t-19.5 -57.5q0 -32 21.5 -48t57.5 -16q51 0 86 41.5t35 93.5z" />
    <glyph glyph-name="aring" unicode="&#xe5;" horiz-adv-x="504" 
d="M352 650q0 -40 -29.5 -69.5t-69.5 -29.5t-69.5 29.5t-29.5 69.5q0 41 29.5 70.5t69.5 29.5q41 0 70 -29.5t29 -70.5zM287 616q14 14 14 34t-14 34t-34 14t-34 -14t-14 -34t14 -34t34 -14t34 14zM481 73l17 -52q-7 -3 -22.5 -9.5t-25 -10t-23.5 -7t-25 -3.5
q-29 0 -47.5 19t-23.5 49q-67 -70 -150 -70q-60 0 -98.5 35.5t-38.5 95.5q0 169 285 171v53q0 100 -83 100q-39 0 -79 -16t-64 -43l-41 59q81 65 191 65q78 0 118.5 -42.5t40.5 -121.5v-248q0 -20 4.5 -29t17.5 -9q12 0 47 14zM329 194v32q-37 0 -63.5 -2.5t-62 -11.5
t-55 -31.5t-19.5 -57.5q0 -32 21.5 -48t57.5 -16q51 0 86 41.5t35 93.5z" />
    <glyph glyph-name="ae" unicode="&#xe6;" horiz-adv-x="750" 
d="M677 102l40 -61q-71 -54 -166 -54q-119 0 -192 98q-35 -51 -76.5 -74t-103.5 -23q-63 0 -100.5 36t-37.5 98q0 44 18.5 77t47 52.5t68 31.5t76 16t76.5 4q1 8 1 24q0 49 -19 83t-65 34q-39 0 -79 -16t-65 -43l-41 58q26 30 84.5 48t104.5 18q98 0 138 -65q27 30 67 47.5
t80 17.5q91 0 139 -50t48 -142q0 -37 -13 -56.5t-48 -19.5h-254v-17q0 -63 40 -115t102 -52q33 0 70 12t60 33zM411 303h204q13 0 18.5 4.5t5.5 17.5q0 52 -23 86.5t-73 34.5q-55 0 -89.5 -42t-42.5 -101zM326 204v35h-14q-42 0 -80.5 -8t-71.5 -34.5t-33 -68.5
q0 -33 22 -51t56 -18q56 0 88.5 43.5t32.5 101.5z" />
    <glyph glyph-name="ccedilla" unicode="&#xe7;" horiz-adv-x="450" 
d="M151 -192l24 46q42 -23 64 -23q18 0 31 11t13 28q0 16 -10.5 25.5t-27.5 9.5h-47q-16 0 -16 12q0 2 2 6l39 69q-81 18 -130 92.5t-49 163.5q0 113 63.5 187t174.5 74q77 0 144 -51l-45 -58q-29 25 -52.5 34.5t-59.5 9.5q-65 0 -100.5 -59t-35.5 -128q0 -46 13.5 -89.5
t47 -77.5t80.5 -34q36 0 61 10t60 34l38 -63q-47 -28 -80.5 -39t-84.5 -11l-18 -33h12q41 0 72.5 -20t31.5 -61q0 -93 -127 -93q-44 0 -88 28z" />
    <glyph glyph-name="egrave" unicode="&#xe8;" 
d="M406 103l37 -60q-69 -56 -168 -56q-108 0 -169.5 72.5t-61.5 183.5q0 68 22.5 127t73 99t120.5 40q87 0 140 -51.5t53 -137.5q0 -64 -51 -64h-270v-10q0 -72 38.5 -130.5t106.5 -58.5q33 0 69 12.5t60 33.5zM138 318h209q11 0 14 4.5t3 16.5q0 45 -26 76t-70 31
q-48 0 -84.5 -39t-45.5 -89zM309 576h-78l-140 152h123z" />
    <glyph glyph-name="eacute" unicode="&#xe9;" 
d="M297 576h-78l96 152h122zM406 103l37 -60q-69 -56 -168 -56q-108 0 -169.5 72.5t-61.5 183.5q0 68 22.5 127t73 99t120.5 40q87 0 140 -51.5t53 -137.5q0 -64 -51 -64h-270v-10q0 -72 38.5 -130.5t106.5 -58.5q33 0 69 12.5t60 33.5zM138 318h209q11 0 14 4.5t3 16.5
q0 45 -26 76t-70 31q-48 0 -84.5 -39t-45.5 -89z" />
    <glyph glyph-name="ecircumflex" unicode="&#xea;" 
d="M406 573h-69l-79 82l-76 -81h-67l102 154h83zM406 103l37 -60q-69 -56 -168 -56q-108 0 -169.5 72.5t-61.5 183.5q0 68 22.5 127t73 99t120.5 40q87 0 140 -51.5t53 -137.5q0 -64 -51 -64h-270v-10q0 -72 38.5 -130.5t106.5 -58.5q33 0 69 12.5t60 33.5zM138 318h209
q11 0 14 4.5t3 16.5q0 45 -26 76t-70 31q-48 0 -84.5 -39t-45.5 -89z" />
    <glyph glyph-name="edieresis" unicode="&#xeb;" 
d="M404 624q0 -23 -17 -40t-40 -17t-39.5 17t-16.5 40t16.5 40t39.5 17q24 0 40.5 -16.5t16.5 -40.5zM241 624q0 -23 -17 -40t-40 -17t-39.5 17t-16.5 40t16.5 40t39.5 17q24 0 40.5 -16.5t16.5 -40.5zM406 103l37 -60q-69 -56 -168 -56q-108 0 -169.5 72.5t-61.5 183.5
q0 68 22.5 127t73 99t120.5 40q87 0 140 -51.5t53 -137.5q0 -64 -51 -64h-270v-10q0 -72 38.5 -130.5t106.5 -58.5q33 0 69 12.5t60 33.5zM138 318h209q11 0 14 4.5t3 16.5q0 45 -26 76t-70 31q-48 0 -84.5 -39t-45.5 -89z" />
    <glyph glyph-name="igrave" unicode="&#xec;" horiz-adv-x="250" 
d="M167 0h-83v438q0 1 -3 14.5t-6 28t-3 16.5h95v-497zM170 576h-78l-140 152h123z" />
    <glyph glyph-name="iacute" unicode="&#xed;" horiz-adv-x="250" 
d="M167 0h-83v438q0 1 -3 14.5t-6 28t-3 16.5h95v-497zM146 576h-78l96 152h122z" />
    <glyph glyph-name="icircumflex" unicode="&#xee;" horiz-adv-x="250" 
d="M270 574h-69l-79 82l-76 -81h-67l102 154h83zM167 0h-83v438q0 1 -3 14.5t-6 28t-3 16.5h95v-497z" />
    <glyph glyph-name="idieresis" unicode="&#xef;" horiz-adv-x="250" 
d="M167 0h-83v438q0 1 -3 14.5t-6 28t-3 16.5h95v-497zM264 624q0 -23 -17 -40t-40 -17t-39.5 17t-16.5 40t16.5 40t39.5 17q24 0 40.5 -16.5t16.5 -40.5zM101 624q0 -23 -17 -40t-40 -17t-39.5 17t-16.5 40t16.5 40t39.5 17q24 0 40.5 -16.5t16.5 -40.5z" />
    <glyph glyph-name="eth" unicode="&#xf0;" horiz-adv-x="536" 
d="M400 729l-101 -56q192 -230 192 -426q0 -108 -60 -182.5t-163 -74.5t-163 74.5t-60 182.5t60.5 183t162.5 75q34 0 67 -13q-40 77 -96 148l-105 -58l-31 40l104 58q-26 29 -57 59l55 33q41 -39 60 -60l107 59zM403 247q0 46 -11 88t-43 76t-81 34q-48 0 -80.5 -34.5
t-43.5 -76.5t-11 -87q0 -46 11 -87.5t43.5 -75.5t80.5 -34q37 0 65 19t42.5 49.5t21 63t6.5 65.5z" />
    <glyph glyph-name="ntilde" unicode="&#xf1;" horiz-adv-x="547" 
d="M388 672h47q-4 -38 -26.5 -68.5t-58.5 -30.5q-29 0 -76.5 19.5t-72.5 19.5q-11 0 -21 -8t-13 -19h-50q6 40 31 70t63 30q29 0 76 -19.5t65 -19.5q22 0 36 26zM464 0h-82v305q0 23 -1 38t-5.5 34t-13 30.5t-25 19.5t-39.5 8q-66 0 -136 -66v-369h-82v352q0 96 -33 141
l91 12q15 -38 19 -71q75 75 155 75q79 0 115.5 -47.5t36.5 -129.5v-332z" />
    <glyph glyph-name="ograve" unicode="&#xf2;" horiz-adv-x="536" 
d="M268 -13q-105 0 -164.5 76.5t-59.5 184.5q0 107 60 184t164 77q106 0 165.5 -76t59.5 -185t-59.5 -185t-165.5 -76zM268 50q49 0 81.5 33t44 75.5t11.5 89.5t-12 89.5t-44.5 75.5t-80.5 33t-80.5 -33t-44 -75.5t-11.5 -89.5q0 -44 13 -87t45.5 -77t77.5 -34zM314 575h-78
l-140 152h123z" />
    <glyph glyph-name="oacute" unicode="&#xf3;" horiz-adv-x="536" 
d="M307 575h-78l96 152h122zM268 -13q-105 0 -164.5 76.5t-59.5 184.5q0 107 60 184t164 77q106 0 165.5 -76t59.5 -185t-59.5 -185t-165.5 -76zM268 50q49 0 81.5 33t44 75.5t11.5 89.5t-12 89.5t-44.5 75.5t-80.5 33t-80.5 -33t-44 -75.5t-11.5 -89.5q0 -44 13 -87
t45.5 -77t77.5 -34z" />
    <glyph glyph-name="ocircumflex" unicode="&#xf4;" horiz-adv-x="536" 
d="M415 572h-69l-79 82l-76 -81h-67l102 154h83zM268 -13q-105 0 -164.5 76.5t-59.5 184.5q0 107 60 184t164 77q106 0 165.5 -76t59.5 -185t-59.5 -185t-165.5 -76zM268 50q49 0 81.5 33t44 75.5t11.5 89.5t-12 89.5t-44.5 75.5t-80.5 33t-80.5 -33t-44 -75.5t-11.5 -89.5
q0 -44 13 -87t45.5 -77t77.5 -34z" />
    <glyph glyph-name="otilde" unicode="&#xf5;" horiz-adv-x="536" 
d="M391 672h47q-4 -38 -26.5 -68.5t-58.5 -30.5q-29 0 -76.5 19.5t-72.5 19.5q-22 0 -34 -27h-49q5 40 30 70t64 30q28 0 75 -19.5t65 -19.5q27 0 36 26zM268 -13q-105 0 -164.5 76.5t-59.5 184.5q0 107 60 184t164 77q106 0 165.5 -76t59.5 -185t-59.5 -185t-165.5 -76z
M268 50q49 0 81.5 33t44 75.5t11.5 89.5t-12 89.5t-44.5 75.5t-80.5 33t-80.5 -33t-44 -75.5t-11.5 -89.5q0 -44 13 -87t45.5 -77t77.5 -34z" />
    <glyph glyph-name="odieresis" unicode="&#xf6;" horiz-adv-x="536" 
d="M410 624q0 -23 -17 -40t-40 -17t-39.5 17t-16.5 40t16.5 40t39.5 17q24 0 40.5 -16.5t16.5 -40.5zM247 624q0 -23 -17 -40t-40 -17t-39.5 17t-16.5 40t16.5 40t39.5 17q24 0 40.5 -16.5t16.5 -40.5zM268 -13q-105 0 -164.5 76.5t-59.5 184.5q0 107 60 184t164 77
q106 0 165.5 -76t59.5 -185t-59.5 -185t-165.5 -76zM268 50q49 0 81.5 33t44 75.5t11.5 89.5t-12 89.5t-44.5 75.5t-80.5 33t-80.5 -33t-44 -75.5t-11.5 -89.5q0 -44 13 -87t45.5 -77t77.5 -34z" />
    <glyph glyph-name="divide" unicode="&#xf7;" horiz-adv-x="630" 
d="M358 456q18 -18 18 -43t-17.5 -42.5t-42.5 -17.5t-43 17.5t-18 42.5t18 43t43 18t42 -18zM567 211h-499v70h499v-70zM358 122q18 -17 18 -42t-17.5 -42.5t-42.5 -17.5t-43 17.5t-18 42.5t18 42.5t43 17.5t42 -18z" />
    <glyph glyph-name="oslash" unicode="&#xf8;" horiz-adv-x="537" 
d="M101 -69l-47 31l59 91q-69 73 -69 195q0 107 60 184t164 77q57 0 108 -27l44 71l50 -27l-49 -80q72 -73 72 -198q0 -109 -59.5 -185t-165.5 -76q-62 0 -111 30zM158 127l181 295q-32 24 -71 24q-70 0 -104.5 -60.5t-34.5 -137.5q0 -72 29 -121zM378 375l-184 -296
q32 -29 74 -29q49 0 81.5 32.5t45 75t12.5 90.5q0 75 -29 127z" />
    <glyph glyph-name="ugrave" unicode="&#xf9;" horiz-adv-x="553" 
d="M534 73l17 -52q-7 -3 -22.5 -9.5t-25 -10t-23.5 -7t-25 -3.5q-29 0 -47 19t-23 49q-70 -72 -153 -72q-79 0 -115.5 47.5t-36.5 129.5v274q0 1 -3 14.5t-6.5 28t-3.5 16.5h96v-306q0 -27 2.5 -46t10 -40t25.5 -32.5t45 -11.5q56 0 96 35.5t40 91.5v250q0 1 -3 14.5
t-6.5 28t-3.5 16.5h96v-400q0 -20 4.5 -29t17.5 -9q12 0 47 14zM313 575h-78l-140 152h123z" />
    <glyph glyph-name="uacute" unicode="&#xfa;" horiz-adv-x="553" 
d="M304 575h-78l96 152h122zM534 73l17 -52q-7 -3 -22.5 -9.5t-25 -10t-23.5 -7t-25 -3.5q-29 0 -47 19t-23 49q-70 -72 -153 -72q-79 0 -115.5 47.5t-36.5 129.5v274q0 1 -3 14.5t-6.5 28t-3.5 16.5h96v-306q0 -27 2.5 -46t10 -40t25.5 -32.5t45 -11.5q56 0 96 35.5
t40 91.5v250q0 1 -3 14.5t-6.5 28t-3.5 16.5h96v-400q0 -20 4.5 -29t17.5 -9q12 0 47 14z" />
    <glyph glyph-name="ucircumflex" unicode="&#xfb;" horiz-adv-x="553" 
d="M412 565h-69l-79 82l-76 -81h-67l102 154h83zM534 73l17 -52q-7 -3 -22.5 -9.5t-25 -10t-23.5 -7t-25 -3.5q-29 0 -47 19t-23 49q-70 -72 -153 -72q-79 0 -115.5 47.5t-36.5 129.5v274q0 1 -3 14.5t-6.5 28t-3.5 16.5h96v-306q0 -27 2.5 -46t10 -40t25.5 -32.5t45 -11.5
q56 0 96 35.5t40 91.5v250q0 1 -3 14.5t-6.5 28t-3.5 16.5h96v-400q0 -20 4.5 -29t17.5 -9q12 0 47 14z" />
    <glyph glyph-name="udieresis" unicode="&#xfc;" horiz-adv-x="553" 
d="M406 624q0 -23 -17 -40t-40 -17t-39.5 17t-16.5 40t16.5 40t39.5 17q24 0 40.5 -16.5t16.5 -40.5zM243 624q0 -23 -17 -40t-40 -17t-39.5 17t-16.5 40t16.5 40t39.5 17q24 0 40.5 -16.5t16.5 -40.5zM534 73l17 -52q-7 -3 -22.5 -9.5t-25 -10t-23.5 -7t-25 -3.5
q-29 0 -47 19t-23 49q-70 -72 -153 -72q-79 0 -115.5 47.5t-36.5 129.5v274q0 1 -3 14.5t-6.5 28t-3.5 16.5h96v-306q0 -27 2.5 -46t10 -40t25.5 -32.5t45 -11.5q56 0 96 35.5t40 91.5v250q0 1 -3 14.5t-6.5 28t-3.5 16.5h96v-400q0 -20 4.5 -29t17.5 -9q12 0 47 14z" />
    <glyph glyph-name="yacute" unicode="&#xfd;" horiz-adv-x="456" 
d="M277 571h-78l96 152h122zM76 -217h-38v67h11q30 0 54 13.5t41.5 39.5t28 48t21.5 53l-182 493h90l132 -378l132 378h78l-176 -499q-77 -215 -192 -215z" />
    <glyph glyph-name="thorn" unicode="&#xfe;" horiz-adv-x="557" 
d="M166 -212h-82v916q0 1 -3.5 14.5t-7 27.5t-3.5 16h96v-324q66 66 151 66q63 0 108.5 -38.5t65.5 -94t20 -118.5q0 -110 -58.5 -187t-158.5 -77q-77 0 -128 54v-255zM166 372v-168q0 -67 33 -111t92 -44q36 0 63 19.5t41.5 50.5t21 64t6.5 66q0 74 -32 131.5t-100 57.5
q-70 0 -125 -66z" />
    <glyph glyph-name="ydieresis" unicode="&#xff;" horiz-adv-x="456" 
d="M375 628q0 -23 -17 -40t-40 -17t-39.5 17t-16.5 40t16.5 40t39.5 17q24 0 40.5 -16.5t16.5 -40.5zM212 628q0 -23 -17 -40t-40 -17t-39.5 17t-16.5 40t16.5 40t39.5 17q24 0 40.5 -16.5t16.5 -40.5zM76 -217h-38v67h11q30 0 54 13.5t41.5 39.5t28 48t21.5 53l-182 493h90
l132 -378l132 378h78l-176 -499q-77 -215 -192 -215z" />
    <glyph glyph-name="dotlessi" unicode="&#x131;" horiz-adv-x="252" 
d="M167 0h-83v438q0 1 -3 14.5t-6 28t-3 16.5h95v-497z" />
    <glyph glyph-name="Lslash" unicode="&#x141;" horiz-adv-x="493" 
d="M485 0h-399v277l-78 -36v69l78 36v316q0 1 -3.5 16t-7 31.5t-3.5 18.5h107v-339l206 96v-69l-206 -96v-251h306v-69z" />
    <glyph glyph-name="lslash" unicode="&#x142;" horiz-adv-x="247" 
d="M165 0h-83v298l-71 -33v69l71 33v336q0 1 -3 14t-6.5 27.5t-3.5 16.5h96v-355l71 33v-69l-71 -33v-337z" />
    <glyph glyph-name="OE" unicode="&#x152;" horiz-adv-x="1048" 
d="M1021 0h-423v94q-87 -106 -228 -106q-79 0 -141.5 30.5t-100.5 83.5t-57.5 119.5t-19.5 142.5q0 161 84 267t241 106q143 0 223 -104v95h422v-70h-329v-248h255v-72h-255v-267h329v-71zM598 364q0 57 -12 109t-37 97t-70 72t-106 27t-106 -27t-70 -73t-36.5 -97.5
t-11.5 -108.5t11.5 -108.5t36.5 -97t70 -72.5t106 -27t106.5 27t70.5 72.5t36.5 97t11.5 109.5z" />
    <glyph glyph-name="oe" unicode="&#x153;" horiz-adv-x="842" 
d="M769 104l35 -61q-64 -56 -167 -56q-57 0 -107.5 25.5t-80.5 71.5q-62 -97 -180 -97q-105 0 -165 76.5t-60 184.5q0 107 60.5 184t164.5 77q119 0 181 -99q28 45 73.5 72t97.5 27q84 0 135.5 -52.5t51.5 -136.5q0 -64 -47 -64h-267q1 -52 15 -95t49.5 -73.5t88.5 -30.5
q30 0 64 13.5t58 33.5zM501 318h202q9 0 13 0.5t7.5 4.5t3.5 13q0 47 -26 78.5t-72 31.5q-48 0 -84 -39t-44 -89zM269 50q49 0 81.5 33t44.5 75t12 90q0 46 -12.5 89t-45 76t-80.5 33q-70 0 -104.5 -61t-34.5 -137q0 -44 13.5 -87.5t46.5 -77t79 -33.5z" />
    <glyph glyph-name="Scaron" unicode="&#x160;" horiz-adv-x="516" 
d="M32 42l36 82q33 -29 80 -46.5t90 -17.5q57 0 102 30t45 87q0 35 -18.5 60.5t-47.5 42t-65 30.5t-71.5 29.5t-64.5 35t-47.5 51.5t-18.5 74q0 82 68.5 130.5t159.5 48.5q97 0 188 -54l-46 -67q-70 50 -143 50q-56 0 -91.5 -25.5t-35.5 -74.5q0 -38 34.5 -65.5t83 -46.5
t97.5 -41.5t83.5 -64t34.5 -100.5q0 -98 -72 -150t-178 -52q-98 0 -203 54zM306 697h-84l-104 176h69l77 -103l77 103h68z" />
    <glyph glyph-name="scaron" unicode="&#x161;" horiz-adv-x="430" 
d="M257 552h-84l-104 176h69l77 -103l77 103h68zM51 29l35 61q58 -40 106 -40q41 0 71 16t30 54q0 30 -24 52.5t-58.5 38.5t-68.5 33.5t-58 47.5t-24 72q0 70 51 107.5t124 37.5q76 0 133 -35l-29 -64q-47 36 -95 36q-39 0 -69 -16t-30 -52q0 -30 24 -52.5t58.5 -38t69 -33
t58.5 -48.5t24 -74q0 -74 -50.5 -109.5t-128.5 -35.5q-67 0 -149 42z" />
    <glyph glyph-name="Ydieresis" unicode="&#x178;" horiz-adv-x="584" 
d="M343 0h-95v300l-216 369h107l169 -284l157 284h88l-210 -369v-300zM440 774q0 -23 -17 -40t-40 -17t-39.5 17t-16.5 40t16.5 40t39.5 17q24 0 40.5 -16.5t16.5 -40.5zM277 774q0 -23 -17 -40t-40 -17t-39.5 17t-16.5 40t16.5 40t39.5 17q24 0 40.5 -16.5t16.5 -40.5z" />
    <glyph glyph-name="Zcaron" unicode="&#x17d;" horiz-adv-x="571" 
d="M529 0h-494v67l378 532h-356v69h467v-67l-378 -532h391zM341 697h-84l-104 176h69l77 -103l77 103h68z" />
    <glyph glyph-name="zcaron" unicode="&#x17e;" horiz-adv-x="445" 
d="M270 551h-84l-104 176h69l77 -103l77 103h68zM402 0h-370v47l257 386h-234v64h346v-48l-258 -386h270z" />
    <glyph glyph-name="florin" unicode="&#x192;" horiz-adv-x="297" 
d="M-98 -217l17 60h6q35 0 57.5 28t29.5 66l86 497h-78v53q55 3 61 4q17 4 29 31t22.5 62.5t28 70.5t56.5 59t96 24q42 0 81 -27l-20 -70q-28 33 -82 33q-67 0 -99 -177h142l-18 -63h-133q-41 -277 -78 -465q-16 -82 -59 -135t-119 -53q-18 0 -26 2z" />
    <glyph glyph-name="circumflex" unicode="&#x2c6;" horiz-adv-x="275" 
d="M283 565h-69l-79 82l-76 -81h-67l102 154h83z" />
    <glyph glyph-name="caron" unicode="&#x2c7;" horiz-adv-x="275" 
d="M180 547h-84l-104 176h69l77 -103l77 103h68z" />
    <glyph glyph-name="breve" unicode="&#x2d8;" horiz-adv-x="276" 
d="M228 701h49q-15 -139 -139 -139q-63 0 -98 37.5t-42 101.5h50q15 -70 90 -70q74 0 90 70z" />
    <glyph glyph-name="dotaccent" unicode="&#x2d9;" horiz-adv-x="285" 
d="M77 625q0 28 19 47t47 19q27 0 46.5 -19.5t19.5 -46.5t-19.5 -46.5t-46.5 -19.5t-46.5 19.5t-19.5 46.5z" />
    <glyph glyph-name="ring" unicode="&#x2da;" horiz-adv-x="281" 
d="M239 650q0 -40 -29.5 -69.5t-69.5 -29.5t-69.5 29.5t-29.5 69.5q0 41 29.5 70.5t69.5 29.5q41 0 70 -29.5t29 -70.5zM174 616q14 14 14 34t-14 34t-34 14t-34 -14t-14 -34t14 -34t34 -14t34 14z" />
    <glyph glyph-name="ogonek" unicode="&#x2db;" horiz-adv-x="279" 
d="M237 -115l17 -37q-66 -50 -133 -50q-42 0 -69 21.5t-27 62.5q0 51 63 92t123 51l20 -11q-3 -2 -19.5 -10.5t-23.5 -13t-22 -14t-23 -17t-17.5 -18t-13.5 -21.5t-4 -22q0 -45 49 -45q28 0 80 32z" />
    <glyph glyph-name="tilde" unicode="&#x2dc;" horiz-adv-x="353" 
d="M286 672h47q-4 -38 -26.5 -68.5t-58.5 -30.5q-29 0 -76.5 19.5t-72.5 19.5q-22 0 -34 -27h-49q5 40 30 70t64 30q28 0 75 -19.5t65 -19.5q27 0 36 26z" />
    <glyph glyph-name="hungarumlaut" unicode="&#x2dd;" horiz-adv-x="405" 
d="M237 557h-61l81 170h117zM96 557h-62l81 170h118z" />
    <glyph glyph-name="pi" unicode="&#x3c0;" horiz-adv-x="669" 
d="M602 519l25 -41q-36 -45 -114 -49q-46 -140 -46 -258q0 -41 13.5 -73.5t46.5 -32.5q21 0 43 10q3 -5 10.5 -21.5t12.5 -25.5q-38 -33 -91 -33q-43 0 -71 29t-38 66t-10 81q0 149 56 258h-170v-91q0 -51 -2 -87t-10.5 -84.5t-24.5 -82t-46 -63.5t-72 -45q-22 33 -25 37
q43 24 67 68.5t24 97.5v214q0 7 3 20t3 16q-36 -3 -62.5 -24.5t-34.5 -55.5q-32 8 -47 13q4 61 47 98t115 37h300q61 0 98 22z" />
    <glyph glyph-name="endash" unicode="&#x2013;" horiz-adv-x="502" 
d="M493 230h-485v62h485v-62z" />
    <glyph glyph-name="emdash" unicode="&#x2014;" horiz-adv-x="852" 
d="M843 230h-835v61h835v-61z" />
    <glyph glyph-name="quoteleft" unicode="&#x2018;" horiz-adv-x="286" 
d="M173 733q18 -16 34 -34q-2 -3 -11 -11.5t-14 -14t-11.5 -14t-9.5 -16.5t-3 -15q0 -11 25 -34.5t25 -51.5q0 -25 -17.5 -42.5t-43.5 -17.5q-35 0 -55.5 25t-20.5 60q0 92 102 166z" />
    <glyph glyph-name="quoteright" unicode="&#x2019;" horiz-adv-x="286" 
d="M76 516q2 3 11 11.5t14 14t11.5 14t9.5 16.5t3 15q0 11 -25 34.5t-25 51.5q0 25 18 42.5t44 17.5q35 0 55 -25t20 -60q0 -92 -102 -166q-18 16 -34 34z" />
    <glyph glyph-name="quotesinglbase" unicode="&#x201a;" horiz-adv-x="276" 
d="M70 -93q2 3 11 11.5t14 14t11.5 14t9.5 16.5t3 15q0 11 -25 34.5t-25 51.5q0 25 18 42.5t44 17.5q35 0 55 -25t20 -60q0 -92 -102 -166q-18 16 -34 34z" />
    <glyph glyph-name="quotedblleft" unicode="&#x201c;" horiz-adv-x="487" 
d="M173 733q18 -16 34 -34q-2 -3 -11 -11.5t-14 -14t-11.5 -14t-9.5 -16.5t-3 -15q0 -11 25 -34.5t25 -51.5q0 -25 -17.5 -42.5t-43.5 -17.5q-35 0 -55.5 25t-20.5 60q0 92 102 166zM368 733q18 -16 34 -34q-2 -3 -11 -11.5t-14 -14t-11.5 -14t-9.5 -16.5t-3 -15
q0 -11 25 -34.5t25 -51.5q0 -25 -17.5 -42.5t-43.5 -17.5q-35 0 -55.5 25t-20.5 60q0 92 102 166z" />
    <glyph glyph-name="quotedblright" unicode="&#x201d;" horiz-adv-x="487" 
d="M80 516q2 3 11 11.5t14 14t11.5 14t9.5 16.5t3 15q0 11 -25 34.5t-25 51.5q0 25 18 42.5t44 17.5q35 0 55 -25t20 -60q0 -92 -102 -166q-18 16 -34 34zM275 516q2 3 11 11.5t14 14t11.5 14t9.5 16.5t3 15q0 11 -25 34.5t-25 51.5q0 25 18 42.5t44 17.5q35 0 55 -25
t20 -60q0 -92 -102 -166q-18 16 -34 34z" />
    <glyph glyph-name="quotedblbase" unicode="&#x201e;" horiz-adv-x="477" 
d="M76 -93q2 3 11 11.5t14 14t11.5 14t9.5 16.5t3 15q0 11 -25 34.5t-25 51.5q0 25 18 42.5t44 17.5q35 0 55 -25t20 -60q0 -92 -102 -166q-18 16 -34 34zM265 -93q2 3 11 11.5t14 14t11.5 14t9.5 16.5t3 15q0 11 -25 34.5t-25 51.5q0 25 18 42.5t44 17.5q35 0 55 -25
t20 -60q0 -92 -102 -166q-18 16 -34 34z" />
    <glyph glyph-name="dagger" unicode="&#x2020;" horiz-adv-x="523" 
d="M291 -138h-46l-18 298q-1 17 -5 66t-4 83q0 11 5 41t12 67.5t8 44.5l-126 -22l-66 45l66 44l126 -25l-26 154l47 82l52 -82l-27 -154l129 25l64 -48l-64 -41l-129 22q1 -6 8.5 -44t12.5 -68.5t5 -40.5q0 -26 -1.5 -49t-3.5 -51t-3 -49z" />
    <glyph glyph-name="daggerdbl" unicode="&#x2021;" horiz-adv-x="523" 
d="M270 -139l-53 78l26 154l-126 -25l-66 49l66 38l127 -20q-2 11 -9 51.5t-12 75t-5 47.5q0 11 5 41t12 67.5t8 44.5l-126 -22l-66 45l66 44l126 -25l-26 154l47 82l52 -82l-27 -154l129 25l64 -48l-64 -41l-129 22q1 -5 8 -43t13 -72t6 -38q0 -14 -4.5 -48t-11.5 -74.5
t-8 -51.5l123 20l67 -43l-67 -44l-122 25l23 -154z" />
    <glyph glyph-name="bullet" unicode="&#x2022;" horiz-adv-x="441" 
d="M334 243q-46 -47 -113 -47t-114 47t-47 114t47 114t114 47t113.5 -47t46.5 -114t-47 -114z" />
    <glyph glyph-name="ellipsis" unicode="&#x2026;" horiz-adv-x="714" 
d="M82 53q0 28 19 47t47 19q27 0 46.5 -19.5t19.5 -46.5t-19.5 -46.5t-46.5 -19.5t-46.5 19.5t-19.5 46.5zM293 53q0 28 19 47t47 19q27 0 46.5 -19.5t19.5 -46.5t-19.5 -46.5t-46.5 -19.5t-46.5 19.5t-19.5 46.5zM504 53q0 28 19 47t47 19q27 0 46.5 -19.5t19.5 -46.5
t-19.5 -46.5t-46.5 -19.5t-46.5 19.5t-19.5 46.5z" />
    <glyph glyph-name="perthousand" unicode="&#x2030;" horiz-adv-x="1148" 
d="M943 -5q-77 0 -123 59t-46 138q0 82 42.5 137.5t122.5 55.5q75 0 119 -58t44 -135q0 -76 -43 -136.5t-116 -60.5zM593 -5q-77 0 -123 58.5t-46 138.5q0 82 42.5 137.5t121.5 55.5q75 0 119 -58t44 -135q0 -75 -43 -136t-115 -61zM247 -13h-64l328 670h-183
q46 -56 46 -136q0 -75 -43.5 -136t-115.5 -61q-77 0 -123 59t-46 138q0 81 42.5 136.5t121.5 55.5h392zM941 54q43 0 63.5 44t20.5 92q0 28 -7.5 57.5t-27.5 55t-50 25.5q-43 0 -67 -46.5t-24 -93.5t24 -90.5t68 -43.5zM591 54q30 0 49.5 25t26.5 53.5t7 57.5
q0 28 -7.5 57.5t-27.5 55t-50 25.5q-29 0 -50.5 -25.5t-30.5 -56t-9 -58.5q0 -47 24 -90.5t68 -43.5zM213 383q30 0 50 25t27 54t7 57q0 29 -7.5 58.5t-28 54.5t-50.5 25q-29 0 -50.5 -25.5t-30.5 -56t-9 -58.5q0 -47 24 -90.5t68 -43.5z" />
    <glyph glyph-name="guilsinglleft" unicode="&#x2039;" horiz-adv-x="298" 
d="M253 179l-59 -8l-149 162l145 164l61 -12l-116 -152z" />
    <glyph glyph-name="guilsinglright" unicode="&#x203a;" horiz-adv-x="329" 
d="M120 169l-60 8l119 154l-116 152l61 12l144 -164z" />
    <glyph glyph-name="fraction" unicode="&#x2044;" horiz-adv-x="132" 
d="M-89 -7h-64l373 737h66z" />
    <glyph glyph-name="Euro" unicode="&#x20ac;" horiz-adv-x="524" 
d="M448 73l22 -63q-54 -20 -112 -20q-100 0 -165 51t-85 136h-95l9 42h79q-2 12 -2 36q0 21 1 31h-63l9 42h60q20 86 85 138t165 52q52 0 106 -17l-15 -65q-39 20 -91 20q-67 0 -106.5 -35t-54.5 -93h228l-9 -42h-227q-1 -21 -1 -32q0 -13 2 -35h211l-9 -42h-193
q16 -56 57 -89.5t106 -33.5q49 0 88 19z" />
    <glyph glyph-name="trademark" unicode="&#x2122;" horiz-adv-x="568" 
d="M504 493h-49v151q-19 -52 -54 -138l-5 -13h-30q-8 21 -28.5 74t-31.5 81v-155h-42v225h66l55 -145l55 145h64v-225zM170 494h-50v187h-71v37h193v-37h-72v-187z" />
    <glyph glyph-name="Omega" unicode="&#x2126;" horiz-adv-x="782" 
d="M725 0h-258v53q52 20 87 69t48.5 105.5t13.5 120.5q0 58 -12 111.5t-37 101t-70.5 76t-105.5 28.5t-105.5 -28.5t-70.5 -76t-37 -101t-12 -111.5q0 -101 36 -183.5t112 -111.5v-53h-258v69h73l67 -5q-59 43 -93.5 124.5t-34.5 172.5q0 161 84.5 267t238.5 106t238.5 -106
t84.5 -267q0 -91 -34.5 -172.5t-93.5 -124.5l67 5h72v-69z" />
    <glyph glyph-name="partialdiff" unicode="&#x2202;" horiz-adv-x="555" 
d="M388 355q-3 31 -4 41q-4 129 -56.5 197t-121.5 68q-30 0 -55 -7.5t-35 -14.5l-11 -7q-14 24 -33 51q5 6 16 14.5t49 22.5t82 14q118 0 193 -106t75 -295q0 -98 -24 -169t-63 -107t-77.5 -51.5t-77.5 -15.5q-32 0 -63.5 10t-63.5 31.5t-51.5 64t-19.5 99.5q0 55 21 98
t53 67.5t66 37t65 12.5q85 0 136 -55zM386 290q-50 50 -120 50q-56 0 -91.5 -47t-35.5 -107q0 -50 26.5 -89.5t80.5 -39.5q61 0 97.5 67t42.5 166z" />
    <glyph glyph-name="Delta" unicode="&#x2206;" horiz-adv-x="631" 
d="M614 0h-599v53q87 224 261 670h78q174 -446 260 -670v-53zM97 66h402q-14 37 -75 195t-90 235q-7 20 -19 58.5t-16 50.5z" />
    <glyph glyph-name="product" unicode="&#x220f;" horiz-adv-x="833" 
d="M686 -228h-96v883h-347v-883h-96v883h-116v69h772v-69h-117v-883z" />
    <glyph glyph-name="summation" unicode="&#x2211;" horiz-adv-x="726" 
d="M671 -228h-616v98q96 132 290 396l-129 172t-161 216v69h606v-69h-485q77 -100 275 -360q-250 -342 -312 -421h532v-101z" />
    <glyph glyph-name="minus" unicode="&#x2212;" horiz-adv-x="636" 
d="M564 216h-492v61h492v-61z" />
    <glyph glyph-name="radical" unicode="&#x221a;" horiz-adv-x="605" 
d="M291 -230h-83l-148 443l-86 -30l-20 62l163 58l138 -415l320 1060h72z" />
    <glyph glyph-name="infinity" unicode="&#x221e;" horiz-adv-x="812" 
d="M581 82q-52 0 -92.5 30.5t-82.5 84.5q-42 -54 -82.5 -84.5t-92.5 -30.5q-69 0 -111 46.5t-42 119.5t42 119.5t112 46.5q51 0 91.5 -30.5t82.5 -83.5q42 53 82.5 83.5t91.5 30.5q70 0 112 -46.5t42 -119.5t-42 -119.5t-111 -46.5zM580 333q-37 0 -68 -23t-64 -62
q70 -84 134 -84q39 0 62.5 22.5t23.5 61.5t-24.5 62t-63.5 23zM364 248q-21 25 -37.5 41t-42.5 30t-52 14q-39 0 -63.5 -23t-24.5 -62t23.5 -61.5t62.5 -22.5q64 0 134 84z" />
    <glyph glyph-name="integral" unicode="&#x222b;" horiz-adv-x="256" 
d="M-7 -226v57q48 0 73.5 34t25.5 79v600q0 190 176 190v-58q-47 0 -70 -33.5t-23 -79.5v-599q0 -92 -45.5 -141t-136.5 -49z" />
    <glyph glyph-name="approxequal" unicode="&#x2248;" horiz-adv-x="657" 
d="M133 290l-50 32q13 28 49.5 61t84.5 33q49 0 116 -34.5t100 -34.5q30 0 55 22t32 39q34 -21 51 -32q-8 -16 -23 -34.5t-46.5 -39t-65.5 -20.5q-48 0 -115 34.5t-101 34.5q-46 0 -87 -61zM133 99l-50 32q13 28 49.5 61t84.5 33q49 0 116 -34.5t100 -34.5q30 0 55 22t32 39
q34 -21 51 -32q-8 -16 -23 -34.5t-46.5 -39t-65.5 -20.5q-48 0 -115 34.5t-101 34.5q-46 0 -87 -61z" />
    <glyph glyph-name="notequal" unicode="&#x2260;" horiz-adv-x="638" 
d="M565 119h-261l-46 -129h-65l46 129h-167v62h190l48 131h-238v62h260l48 132h64l-48 -132h169v-62h-191l-48 -131h239v-62z" />
    <glyph glyph-name="lessequal" unicode="&#x2264;" horiz-adv-x="630" 
d="M564 87l-498 171v75l498 169v-77l-402 -131l402 -131v-76zM564 0h-498v70h498v-70z" />
    <glyph glyph-name="greaterequal" unicode="&#x2265;" horiz-adv-x="630" 
d="M564 258l-498 -171v76l402 131l-402 131v77l498 -169v-75zM564 0h-498v70h498v-70z" />
    <glyph glyph-name="lozenge" unicode="&#x25ca;" horiz-adv-x="504" 
d="M402 360l-151 291q-100 -194 -149 -291q117 -231 150 -295q17 33 69 136.5t81 158.5zM272 -11h-40l-195 371q29 56 61.5 118t72 137.5t61.5 116.5h40q22 -41 61.5 -116.5t72 -137.5t61.5 -118z" />
    </font>
</defs>
</svg>
